# Blender 4.2.2 LTS
# www.blender.org
mtllib corta.mtl
o Cube
v -5.131522 -3.025320 2.470006
v -5.343669 2.254143 2.639732
v -5.131522 -3.025320 -2.338338
v -5.343669 2.254143 -2.639732
v 5.133428 -3.025320 2.470006
v 5.343669 2.254143 2.639732
v 5.133428 -3.025320 -2.338338
v 5.343669 2.254143 -2.639732
v -0.239914 2.254143 2.639732
v -0.229479 -3.025320 -2.338338
v -0.239914 2.254143 -2.639732
v -0.229479 -3.025320 2.470006
v -0.957588 2.254143 -2.639732
v -0.918789 -3.025320 2.470006
v -0.957588 2.254143 2.639732
v -0.918789 -3.025320 -2.338338
v 5.343669 2.254143 1.941585
v -5.131522 -3.025320 1.834159
v 5.133428 -3.025320 1.834159
v -5.343669 2.254143 1.941585
v -0.239914 2.254143 1.941585
v -0.229479 -3.025320 1.834159
v -0.918789 -3.025320 1.834159
v -0.957588 2.254143 1.941585
v -0.484756 2.254143 2.639732
v -0.464644 -3.025320 -2.338338
v -0.484756 2.254143 -2.639732
v -0.464644 -3.025320 2.470006
v -0.484756 2.254143 1.941585
v -0.464644 -3.025320 1.834159
v -0.684800 2.254143 -2.639732
v -0.656783 -3.025320 2.470006
v -0.656783 -3.025320 1.834159
v -0.684800 2.254143 2.639732
v -0.656782 -3.025320 -2.338338
v -0.684800 2.254143 1.941585
v -0.484756 5.911693 2.639732
v -0.239914 5.911693 2.639732
v -0.239914 5.911693 1.941585
v -0.957588 5.911693 2.639732
v -0.957588 5.911693 1.941585
v -0.484756 5.911693 1.941585
v -0.684800 5.911693 2.639732
v -0.684800 5.911693 1.941585
v -0.484756 4.661860 1.941585
v -0.239914 4.661860 1.941585
v -0.484756 4.661860 2.639732
v -0.239914 4.661860 2.639732
v -0.684800 4.661860 1.941585
v -0.957588 4.661860 1.941585
v -0.957588 4.661860 2.639732
v -0.684800 4.661860 2.639732
v -0.419792 4.576023 -0.543884
v -0.239914 5.911693 -0.543884
v -0.484756 5.911693 -0.543884
v -0.684800 5.911693 -0.543884
v -0.957588 5.911693 -0.543884
v -0.867834 4.471925 -0.543884
v -0.665373 4.616767 -0.543884
v -0.908578 4.226345 -0.543884
v -0.484756 4.661860 0.238298
v -0.239914 4.661860 0.238298
v -0.684800 5.911693 0.238298
v -0.484756 5.911693 0.238298
v -0.239914 5.911693 0.238298
v -0.957588 4.661860 0.238298
v -0.957588 5.911693 0.238298
v -0.684800 4.661860 0.238298
v -0.239914 3.938046 0.238298
v -0.274951 4.373562 -0.543884
v -0.484756 3.938046 -0.543884
v -0.518156 3.983140 -0.543884
v -0.763736 4.023884 -0.543884
v -0.957588 3.938046 0.238298
v -0.684800 3.938046 0.238298
v -0.484756 3.938046 0.238298
v -0.591764 3.485528 0.238298
v -0.591764 3.485528 -0.543884
v -0.484756 4.661860 -0.543884
v -0.684800 4.661860 -0.543884
v -0.957588 4.661860 -0.543884
v -0.239914 4.661860 -0.543884
v -0.239914 3.938046 -0.543884
v -0.315695 4.127981 -0.543884
v -0.684800 3.938046 -0.543884
v -0.957588 3.938046 -0.543884
v -0.918789 -3.025320 1.731745
v -0.229479 -3.025320 1.731745
v -0.781009 4.564482 -0.543884
v -0.912630 4.353188 -0.543884
v -0.538530 4.620819 -0.543884
v -0.327236 4.489198 -0.543884
v -0.402520 4.035424 -0.543884
v -0.644998 3.979088 -0.543884
v -0.270898 4.246719 -0.543884
v -0.856293 4.110709 -0.543884
v -0.239914 2.254143 1.829136
v -5.131522 -3.025320 1.731745
v 5.343669 2.254143 1.829136
v -0.484756 4.299953 -0.684179
v -0.315695 4.127981 -0.684179
v -0.684800 4.299953 -0.684179
v -0.518156 3.983140 -0.684179
v -0.781009 4.564482 -0.684179
v -0.867834 4.471925 -0.684179
v -0.912630 4.353188 -0.684179
v -0.908578 4.226345 -0.684179
v -0.538530 4.620819 -0.684179
v -0.665373 4.616767 -0.684179
v -0.327236 4.489198 -0.684179
v -0.419792 4.576023 -0.684179
v -0.402520 4.035424 -0.684179
v -0.644998 3.979088 -0.684179
v -0.763736 4.023884 -0.684179
v -0.270898 4.246719 -0.684179
v -0.856293 4.110709 -0.684179
v -0.274951 4.373562 -0.684179
v -0.779506 4.299953 -0.684179
v -0.404023 4.299953 -0.684179
v -0.584778 4.299953 -0.684179
v -0.957588 2.254143 1.829136
v 5.133428 -3.025320 1.731745
v -5.343669 2.254143 1.829137
v -0.484756 2.254143 1.829136
v -0.464644 -3.025320 1.731745
v -0.656783 -3.025320 1.731745
v -0.684800 2.254143 1.829136
v 2.551878 2.254143 2.639732
v 2.451974 -3.025320 -2.338338
v 2.551878 2.254143 -2.639732
v 2.451975 -3.025320 2.470006
v 2.551878 2.254143 1.941585
v 2.451975 -3.025320 1.834159
v 2.551878 2.254143 1.829136
v 2.451975 -3.025320 1.731745
v -0.484756 3.549726 1.941585
v -0.239914 3.549726 1.941585
v -0.684800 3.549726 1.941585
v -0.957588 3.549726 1.941585
v -0.239914 3.549726 1.829136
v -0.957588 3.549726 1.829136
v -0.484756 3.549726 1.829136
v -0.684800 3.549726 1.829136
v 2.551878 2.527615 1.941585
v 2.551878 2.527615 1.829136
v -5.343669 2.033241 2.639732
v 5.343669 2.033241 -2.639732
v -5.343669 2.033241 -2.639732
v 5.343669 2.033241 2.639732
v -0.239914 2.033241 2.639732
v -0.239914 2.033241 -2.639732
v -0.957588 2.033241 -2.639732
v -0.957588 2.033241 2.639732
v -5.343669 2.033241 1.941585
v 5.343669 2.033241 1.941585
v -0.484756 2.033241 2.639732
v -0.484756 2.033241 -2.639732
v -0.684800 2.033241 -2.639732
v -0.684800 2.033241 2.639732
v 5.343669 2.033241 1.829136
v -5.343669 2.033241 1.829137
v 2.551878 2.033241 2.639732
v 2.551878 2.033241 -2.639732
v 5.133428 1.956369 -2.338338
v -5.131522 1.956369 2.470006
v -5.131522 1.956369 -2.338338
v 5.133428 1.956369 2.470006
v -0.229479 1.956369 2.470006
v -0.229479 1.956369 -2.338338
v -0.918789 1.956369 -2.338338
v -0.918789 1.956369 2.470006
v -5.131522 1.956369 1.834159
v 5.133428 1.956369 1.834159
v -0.464644 1.956369 2.470006
v -0.464644 1.956369 -2.338338
v -0.656783 1.956369 -2.338338
v -0.656782 1.956369 2.470006
v 5.133428 1.956369 1.731745
v -5.131522 1.956369 1.731745
v 2.451974 1.956369 2.470006
v 2.451975 1.956369 -2.338338
v -0.591764 3.258068 0.238298
v -0.591764 3.258068 -0.543884
vn -0.0000 -1.0000 -0.0000
vn -0.0000 -0.0000 -1.0000
vn 1.0000 -0.0000 -0.0000
vn -0.0000 1.0000 -0.0000
vn -1.0000 -0.0000 -0.0000
vn -0.0000 -0.0000 1.0000
vn -0.9112 -0.4120 -0.0000
vn -0.0319 0.9995 -0.0000
vn -0.7777 -0.6287 -0.0000
vn 0.9995 0.0319 -0.0000
vn 0.7894 -0.6138 -0.0000
vn -0.9995 -0.0319 -0.0000
vn 0.0319 -0.9995 -0.0000
vn -0.7293 0.6842 -0.0000
vn 0.7293 -0.6842 -0.0000
vn -0.6842 -0.7293 -0.0000
vn 0.9112 0.4120 -0.0000
vn 0.9356 -0.3530 -0.0000
vn 0.3530 0.9356 -0.0000
vn -0.3530 -0.9356 -0.0000
vn 0.6842 0.7293 -0.0000
vn -0.4120 0.9112 -0.0000
vn 0.4120 -0.9112 -0.0000
vn -0.9356 0.3530 -0.0000
vn 0.3438 0.9390 -0.0000
vn -0.0000 -0.9690 -0.2471
vn -0.0000 -0.9109 0.4126
vn -0.3407 -0.9402 -0.0000
vn 0.3434 -0.9392 -0.0000
vt 0.197818 0.819758
vt 0.003540 0.819758
vt 0.003540 0.925703
vt 0.197818 0.925703
vt 0.262625 0.365525
vt 0.262625 0.493520
vt 0.500418 0.493520
vt 0.500418 0.365526
vt 0.782720 0.520761
vt 0.752369 0.520761
vt 0.752369 0.757451
vt 0.782720 0.757451
vt 0.042232 0.212644
vt 0.255546 0.212644
vt 0.255546 0.003540
vt 0.042232 0.003540
vt 0.521711 0.535839
vt 0.521711 0.730118
vt 0.695140 0.730118
vt 0.695140 0.535839
vt 0.507497 0.292432
vt 0.507497 0.493520
vt 0.745290 0.493520
vt 0.745290 0.292432
vt 0.507497 0.131534
vt 0.507497 0.259529
vt 0.745290 0.259529
vt 0.745290 0.131534
vt 0.042232 0.379957
vt 0.255546 0.379957
vt 0.255546 0.246859
vt 0.042232 0.246859
vt 0.262625 0.226305
vt 0.262625 0.237531
vt 0.500418 0.237531
vt 0.500418 0.226305
vt 0.197818 0.704522
vt 0.003540 0.704522
vt 0.003540 0.713814
vt 0.197818 0.713814
vt 0.197818 0.520134
vt 0.003540 0.520134
vt 0.003540 0.686579
vt 0.197818 0.686579
vt 0.262625 0.003540
vt 0.262625 0.204628
vt 0.500418 0.204628
vt 0.500418 0.003540
vt 0.507497 0.279926
vt 0.745290 0.279926
vt 0.042232 0.225649
vt 0.255546 0.225649
vt 0.555036 0.796579
vt 0.555036 0.737197
vt 0.521711 0.737197
vt 0.521711 0.796579
vt 0.233058 0.520134
vt 0.202707 0.520134
vt 0.202707 0.686579
vt 0.233058 0.686579
vt 0.233058 0.704522
vt 0.202707 0.704522
vt 0.202707 0.713814
vt 0.233058 0.713814
vt 0.003540 0.379957
vt 0.036864 0.379957
vt 0.036864 0.246859
vt 0.003540 0.246859
vt 0.521711 0.500599
vt 0.521711 0.530950
vt 0.695140 0.530950
vt 0.695140 0.500599
vt 0.003540 0.212644
vt 0.036864 0.212644
vt 0.036864 0.003540
vt 0.003540 0.003540
vt 0.787609 0.520761
vt 0.787609 0.757451
vt 0.233058 0.819758
vt 0.202707 0.819758
vt 0.202707 0.925703
vt 0.233058 0.925703
vt 0.233058 0.696931
vt 0.202707 0.696931
vt 0.812028 0.270063
vt 0.752369 0.270063
vt 0.752369 0.281750
vt 0.812028 0.281750
vt 0.255546 0.235186
vt 0.042232 0.235186
vt 0.507497 0.270754
vt 0.745290 0.270754
vt 0.197818 0.696931
vt 0.003540 0.696931
vt 0.262625 0.217134
vt 0.500418 0.217134
vt 0.736434 0.537936
vt 0.736434 0.500599
vt 0.724761 0.500599
vt 0.724761 0.537936
vt 0.715224 0.652564
vt 0.715224 0.619239
vt 0.702219 0.619239
vt 0.702219 0.652564
vt 0.736434 0.652564
vt 0.736434 0.619239
vt 0.724761 0.619239
vt 0.724761 0.652564
vt 0.715224 0.500599
vt 0.715224 0.537936
vt 0.812028 0.291299
vt 0.752369 0.291299
vt 0.752369 0.304320
vt 0.812028 0.304320
vt 0.540854 0.918053
vt 0.534158 0.918053
vt 0.534158 0.923216
vt 0.540854 0.923216
vt 0.795880 0.764530
vt 0.752369 0.764530
vt 0.752369 0.797855
vt 0.795880 0.797855
vt 0.926956 0.281750
vt 0.926956 0.291299
vt 0.879700 0.764530
vt 0.879700 0.797855
vt 0.983439 0.118468
vt 0.983439 0.003540
vt 0.973891 0.003540
vt 0.973891 0.118468
vt 0.926956 0.304320
vt 0.996460 0.118468
vt 0.996460 0.003540
vt 0.962203 0.003540
vt 0.962203 0.118468
vt 0.926956 0.270063
vt 0.555036 0.910974
vt 0.521711 0.910974
vt 0.967388 0.824189
vt 0.967388 0.764530
vt 0.955701 0.764530
vt 0.955701 0.824189
vt 0.989958 0.824189
vt 0.989958 0.764530
vt 0.976937 0.764530
vt 0.976937 0.824189
vt 0.752369 0.879158
vt 0.752369 0.916494
vt 0.795880 0.916494
vt 0.795880 0.879158
vt 0.636340 0.796579
vt 0.673676 0.796579
vt 0.673676 0.737197
vt 0.636340 0.737197
vt 0.702219 0.500599
vt 0.702219 0.537936
vt 0.724789 0.659643
vt 0.724789 0.694193
vt 0.736476 0.694193
vt 0.736476 0.659643
vt 0.575485 0.924091
vt 0.582182 0.924091
vt 0.582182 0.918053
vt 0.575485 0.918053
vt 0.966479 0.887418
vt 0.966479 0.968722
vt 0.974383 0.968722
vt 0.974383 0.887418
vt 0.955701 0.887418
vt 0.955701 0.968722
vt 0.984057 0.968722
vt 0.984057 0.887418
vt 0.976937 0.858739
vt 0.972496 0.880339
vt 0.989958 0.858739
vt 0.680755 0.949131
vt 0.707329 0.949131
vt 0.707329 0.911795
vt 0.680755 0.911795
vt 0.702219 0.694193
vt 0.719681 0.715794
vt 0.715240 0.694193
vt 0.702219 0.659643
vt 0.715240 0.659643
vt 0.547933 0.929315
vt 0.554630 0.929315
vt 0.554630 0.923307
vt 0.547933 0.923307
vt 0.636340 0.830969
vt 0.673676 0.830969
vt 0.821078 0.916494
vt 0.821078 0.879158
vt 0.636340 0.854085
vt 0.673676 0.854085
vt 0.955701 0.858739
vt 0.967388 0.858739
vt 0.985674 0.833255
vt 0.976010 0.826341
vt 0.981529 0.828837
vt 0.987619 0.844977
vt 0.987812 0.838923
vt 0.964287 0.828286
vt 0.969955 0.826148
vt 0.957374 0.837950
vt 0.959869 0.832430
vt 0.959318 0.849672
vt 0.968983 0.856586
vt 0.963463 0.854090
vt 0.980705 0.854641
vt 0.975037 0.856780
vt 0.957180 0.844005
vt 0.985123 0.850497
vt 0.568406 0.935304
vt 0.561709 0.935304
vt 0.561709 0.939587
vt 0.568406 0.939587
vt 0.540854 0.935090
vt 0.534158 0.935090
vt 0.534158 0.939993
vt 0.540854 0.939993
vt 0.568406 0.923650
vt 0.561709 0.923650
vt 0.561709 0.929707
vt 0.568406 0.929707
vt 0.547933 0.939958
vt 0.554630 0.939958
vt 0.554630 0.935162
vt 0.547933 0.935162
vt 0.534158 0.929199
vt 0.540854 0.929199
vt 0.554630 0.918053
vt 0.547933 0.918053
vt 0.575485 0.929857
vt 0.582182 0.929857
vt 0.729407 0.927265
vt 0.732664 0.942249
vt 0.738261 0.939931
vt 0.732674 0.923783
vt 0.723504 0.933558
vt 0.721010 0.939931
vt 0.726606 0.942249
vt 0.726141 0.930747
vt 0.735766 0.920486
vt 0.742544 0.935647
vt 0.744862 0.930051
vt 0.744862 0.923993
vt 0.732664 0.911795
vt 0.738261 0.914113
vt 0.742544 0.918396
vt 0.714408 0.930051
vt 0.716726 0.935647
vt 0.714408 0.923993
vt 0.716726 0.918396
vt 0.721010 0.914113
vt 0.726606 0.911795
vt 0.575485 0.934476
vt 0.582182 0.934476
vt 0.568406 0.918053
vt 0.561709 0.918053
vt 0.534158 0.943161
vt 0.540854 0.943161
vt 0.527079 0.963156
vt 0.527079 0.918053
vt 0.521711 0.918053
vt 0.521711 0.963156
vt 0.742597 0.870459
vt 0.680755 0.870459
vt 0.680755 0.882146
vt 0.742597 0.882146
vt 0.981888 0.520761
vt 0.981888 0.757451
vt 0.948622 0.787100
vt 0.886780 0.787100
vt 0.886780 0.798787
vt 0.948622 0.798787
vt 0.742597 0.737197
vt 0.729544 0.737197
vt 0.036864 0.513054
vt 0.042232 0.513054
vt 0.003540 0.513054
vt 0.255546 0.513054
vt 0.507497 0.003540
vt 0.745290 0.003540
vt 0.240137 0.801761
vt 0.245505 0.801761
vt 0.245505 0.792224
vt 0.240137 0.792224
vt 0.240137 0.813434
vt 0.245505 0.813434
vt 0.245505 0.779219
vt 0.240137 0.779219
vt 0.240137 0.948952
vt 0.245505 0.948952
vt 0.948622 0.777551
vt 0.886780 0.777551
vt 0.594628 0.931046
vt 0.594628 0.918053
vt 0.589261 0.918053
vt 0.589261 0.931046
vt 0.742597 0.891695
vt 0.680755 0.891695
vt 0.680755 0.904716
vt 0.742597 0.904716
vt 0.935568 0.932048
vt 0.948622 0.932048
vt 0.948622 0.764530
vt 0.886780 0.764530
vt 0.944580 0.247159
vt 0.944580 0.380421
vt 0.955124 0.380421
vt 0.955124 0.247159
vt 0.926956 0.003540
vt 0.926956 0.136801
vt 0.937501 0.136801
vt 0.937501 0.003540
vt 0.962203 0.158872
vt 0.962203 0.164240
vt 0.969894 0.164240
vt 0.969894 0.158872
vt 0.240137 0.520133
vt 0.240137 0.733448
vt 0.250633 0.733448
vt 0.250633 0.520133
vt 0.937501 0.291299
vt 0.937501 0.281750
vt 0.944580 0.212902
vt 0.944580 0.225923
vt 0.955124 0.225923
vt 0.955124 0.212902
vt 0.944580 0.235472
vt 0.955124 0.235472
vt 0.937501 0.270063
vt 0.240137 0.738815
vt 0.250633 0.738815
vt 0.962203 0.125547
vt 0.969894 0.125547
vt 0.937501 0.304320
vt 0.944580 0.003540
vt 0.955124 0.003540
vt 0.926956 0.513682
vt 0.937501 0.513682
vt 0.962203 0.377554
vt 0.969894 0.377554
vt 0.240137 0.772140
vt 0.250633 0.772140
vt 0.944580 0.513682
vt 0.955124 0.513682
vt 0.262625 0.702249
vt 0.262625 0.812553
vt 0.277012 0.810665
vt 0.277012 0.704720
vt 0.514632 0.922857
vt 0.514632 0.812553
vt 0.506530 0.810665
vt 0.506530 0.916609
vt 0.481307 0.500599
vt 0.475939 0.500599
vt 0.471291 0.511040
vt 0.476179 0.511040
vt 0.262625 0.922857
vt 0.475939 0.922857
vt 0.471291 0.916609
vt 0.277012 0.916609
vt 0.514632 0.692575
vt 0.514632 0.684672
vt 0.506530 0.687838
vt 0.506530 0.695429
vt 0.262625 0.673894
vt 0.262625 0.684672
vt 0.277012 0.687838
vt 0.277012 0.677486
vt 0.262625 0.692575
vt 0.277012 0.695429
vt 0.514632 0.702249
vt 0.506530 0.704720
vt 0.481307 0.922857
vt 0.476179 0.916609
vt 0.514632 0.500599
vt 0.506530 0.511040
vt 0.514632 0.673894
vt 0.506530 0.677486
vt 0.262625 0.500599
vt 0.277012 0.511040
vt 0.673676 0.864892
vt 0.636340 0.864892
s 0
usemtl Material
f 135/1/1 129/2/1 7/3/1 122/4/1
f 181/5/2 164/6/2 7/7/2 129/8/2
f 173/9/3 167/10/3 5/11/3 19/12/3
f 121/13/4 13/14/4 4/15/4 123/16/4
f 179/17/5 166/18/5 3/19/5 98/20/5
f 171/21/6 165/22/6 1/23/6 14/24/6
f 180/25/6 168/26/6 12/27/6 131/28/6
f 134/29/4 130/30/4 11/31/4 97/32/4
f 175/33/2 169/34/2 10/35/2 26/36/2
f 125/37/1 26/38/1 10/39/1 88/40/1
f 98/41/1 3/42/1 16/43/1 87/44/1
f 166/45/2 170/46/2 16/47/2 3/48/2
f 177/49/6 171/21/6 14/24/6 32/50/6
f 127/51/4 31/52/4 13/14/4 121/13/4
f 46/53/3 39/54/3 38/55/3 48/56/3
f 1/57/1 18/58/1 23/59/1 14/60/1
f 28/61/1 30/62/1 22/63/1 12/64/1
f 128/65/4 132/66/4 21/67/4 9/68/4
f 165/69/5 172/70/5 18/71/5 1/72/5
f 15/73/4 24/74/4 20/75/4 2/76/4
f 178/77/3 173/9/3 19/12/3 122/78/3
f 131/79/1 133/80/1 19/81/1 5/82/1
f 32/83/1 33/84/1 30/62/1 28/61/1
f 48/85/6 38/86/6 37/87/6 47/88/6
f 97/32/4 11/31/4 27/89/4 124/90/4
f 168/26/6 174/91/6 28/92/6 12/27/6
f 126/93/1 35/94/1 26/38/1 125/37/1
f 176/95/2 175/33/2 26/36/2 35/96/2
f 170/46/2 176/95/2 35/96/2 16/47/2
f 87/44/1 16/43/1 35/94/1 126/93/1
f 14/60/1 23/59/1 33/84/1 32/83/1
f 65/97/4 54/98/4 55/99/4 64/100/4
f 124/90/4 27/89/4 31/52/4 127/51/4
f 174/91/6 177/49/6 32/50/6 28/92/6
f 43/101/4 44/102/4 41/103/4 40/104/4
f 38/105/4 39/106/4 42/107/4 37/108/4
f 37/108/4 42/107/4 44/102/4 43/101/4
f 64/100/4 55/99/4 56/109/4 63/110/4
f 52/111/6 43/112/6 40/113/6 51/114/6
f 60/115/7 107/116/7 116/117/7 96/118/7
f 51/119/5 40/120/5 41/121/5 50/122/5
f 47/88/6 37/87/6 43/112/6 52/111/6
f 25/123/6 47/88/6 52/111/6 34/124/6
f 15/125/5 51/119/5 50/122/5 24/126/5
f 36/127/2 49/128/2 45/129/2 29/130/2
f 34/124/6 52/111/6 51/114/6 15/131/6
f 24/132/2 50/133/2 49/128/2 36/127/2
f 29/130/2 45/129/2 46/134/2 21/135/2
f 9/136/6 48/85/6 47/88/6 25/123/6
f 21/137/3 46/53/3 48/56/3 9/138/3
f 79/139/2 55/140/2 54/141/2 82/142/2
f 81/143/2 57/144/2 56/145/2 80/146/2
f 80/146/2 56/145/2 55/140/2 79/139/2
f 67/147/5 57/148/5 81/149/5 66/150/5
f 62/151/3 82/152/3 54/153/3 65/154/3
f 63/110/4 56/109/4 57/155/4 67/156/4
f 61/157/6 76/158/6 69/159/6 62/160/6
f 91/161/8 108/162/8 109/163/8 59/164/8
f 49/165/1 68/166/1 61/167/1 45/168/1
f 50/169/1 66/170/1 68/166/1 49/165/1
f 44/102/4 63/110/4 67/156/4 41/103/4
f 46/53/3 62/151/3 65/154/3 39/54/3
f 41/121/5 67/147/5 66/150/5 50/122/5
f 45/168/1 61/167/1 62/171/1 46/172/1
f 42/107/4 64/100/4 63/110/4 44/102/4
f 39/106/4 65/97/4 64/100/4 42/107/4
f 85/173/2 78/174/2 86/175/2
f 86/176/9 78/177/9 77/178/9 74/179/9
f 74/180/6 77/181/6 75/182/6
f 66/183/6 74/180/6 75/182/6 68/184/6
f 95/185/10 115/186/10 117/187/10 70/188/10
f 62/151/3 69/189/3 83/190/3 82/152/3
f 68/184/6 75/182/6 76/158/6 61/157/6
f 81/149/5 86/191/5 74/192/5 66/150/5
f 69/189/11 77/193/11 78/194/11 83/190/11
f 76/158/6 77/181/6 69/159/6
f 75/182/6 77/181/6 76/158/6
f 83/195/2 78/174/2 71/196/2
f 71/196/2 78/174/2 85/173/2
f 58/197/2 80/146/2 79/139/2 59/198/2 89/199/2
f 60/200/2 81/143/2 80/146/2 58/197/2 90/201/2
f 59/198/2 79/139/2 82/142/2 53/202/2 91/203/2
f 53/202/2 82/142/2 83/195/2 70/204/2 92/205/2
f 84/206/2 71/196/2 85/173/2 72/207/2 93/208/2
f 72/207/2 85/173/2 86/175/2 73/209/2 94/210/2
f 70/204/2 83/195/2 71/196/2 84/206/2 95/211/2
f 73/209/2 86/175/2 81/143/2 60/200/2 96/212/2
f 90/213/12 106/214/12 107/215/12 60/216/12
f 94/217/13 113/218/13 103/219/13 72/220/13
f 89/221/14 104/222/14 105/223/14 58/224/14
f 93/225/15 112/226/15 101/227/15 84/228/15
f 96/118/16 116/117/16 114/229/16 73/230/16
f 70/188/17 117/187/17 110/231/17 92/232/17
f 84/228/18 101/227/18 115/186/18 95/185/18
f 53/233/19 111/234/19 108/162/19 91/161/19
f 73/230/20 114/229/20 113/218/20 94/217/20
f 120/235/2 112/236/2 103/237/2 102/238/2
f 119/239/2 115/240/2 101/241/2 100/242/2
f 118/243/2 113/244/2 114/245/2 116/246/2
f 102/238/2 103/237/2 113/244/2 118/243/2
f 105/247/2 102/238/2 118/243/2 106/248/2
f 106/248/2 118/243/2 116/246/2 107/249/2
f 110/250/2 117/251/2 115/240/2 119/239/2
f 111/252/2 110/250/2 119/239/2 108/253/2
f 108/253/2 119/239/2 100/242/2 109/254/2
f 100/242/2 101/241/2 112/236/2 120/235/2
f 109/254/2 100/242/2 120/235/2 104/255/2
f 104/255/2 120/235/2 102/238/2 105/247/2
f 92/256/21 110/257/21 111/234/21 53/233/21
f 59/258/22 109/259/22 104/222/22 89/221/22
f 72/220/23 103/219/23 112/260/23 93/261/23
f 58/224/24 105/223/24 106/214/24 90/213/24
f 24/262/5 139/263/5 141/264/5 121/265/5
f 23/59/1 87/44/1 126/93/1 33/84/1
f 33/84/1 126/93/1 125/37/1 30/62/1
f 21/266/6 137/267/6 136/268/6 29/269/6
f 164/270/3 178/77/3 122/78/3 7/271/3
f 124/272/2 142/273/2 140/274/2 97/275/2
f 18/58/1 98/41/1 87/44/1 23/59/1
f 30/62/1 125/37/1 88/40/1 22/63/1
f 132/276/6 144/277/6 137/267/6 21/266/6
f 172/70/5 179/17/5 98/20/5 18/71/5
f 24/74/4 121/13/4 123/16/4 20/75/4
f 133/80/1 135/1/1 122/4/1 19/81/1
f 22/63/1 88/40/1 135/1/1 133/80/1
f 17/278/4 99/279/4 134/29/4 132/66/4
f 12/64/1 22/63/1 133/80/1 131/79/1
f 6/280/4 17/278/4 132/66/4 128/65/4
f 99/279/4 8/281/4 130/30/4 134/29/4
f 167/282/6 180/25/6 131/28/6 5/283/6
f 169/34/2 181/5/2 129/8/2 10/35/2
f 88/40/1 10/39/1 129/2/1 135/1/1
f 136/284/4 142/285/4 143/286/4 138/287/4
f 137/288/4 140/289/4 142/285/4 136/284/4
f 138/287/4 143/286/4 141/290/4 139/291/4
f 144/292/25 145/293/25 140/289/25 137/288/25
f 127/294/2 143/295/2 142/273/2 124/272/2
f 134/296/3 145/297/3 144/298/3 132/299/3
f 36/300/6 138/301/6 139/302/6 24/303/6
f 97/275/2 140/274/2 145/304/2 134/305/2
f 29/269/6 136/268/6 138/301/6 36/300/6
f 121/306/2 141/307/2 143/295/2 127/294/2
f 11/308/2 130/309/2 163/310/2 151/311/2
f 6/312/6 128/313/6 162/314/6 149/315/6
f 20/316/5 123/317/5 161/318/5 154/319/5
f 8/320/3 99/321/3 160/322/3 147/323/3
f 25/123/6 34/124/6 159/324/6 156/325/6
f 13/326/2 31/327/2 158/328/2 152/329/2
f 31/327/2 27/330/2 157/331/2 158/328/2
f 9/136/6 25/123/6 156/325/6 150/332/6
f 99/321/3 17/333/3 155/334/3 160/322/3
f 2/335/5 20/316/5 154/319/5 146/336/5
f 34/124/6 15/131/6 153/337/6 159/324/6
f 4/338/2 13/326/2 152/329/2 148/339/2
f 27/330/2 11/308/2 151/311/2 157/331/2
f 128/313/6 9/136/6 150/332/6 162/314/6
f 15/131/6 2/340/6 146/341/6 153/337/6
f 123/317/5 4/342/5 148/343/5 161/318/5
f 17/333/3 6/344/3 149/345/3 155/334/3
f 130/309/2 8/346/2 147/347/2 163/310/2
f 151/348/26 163/349/26 181/350/26 169/351/26
f 149/352/27 162/353/27 180/354/27 167/355/27
f 154/356/28 161/357/28 179/358/28 172/359/28
f 147/360/29 160/361/29 178/362/29 164/363/29
f 156/364/27 159/365/27 177/366/27 174/367/27
f 152/368/26 158/369/26 176/370/26 170/371/26
f 158/369/26 157/372/26 175/373/26 176/370/26
f 150/374/27 156/364/27 174/367/27 168/375/27
f 160/361/29 155/376/29 173/377/29 178/362/29
f 146/378/28 154/356/28 172/359/28 165/379/28
f 159/365/27 153/380/27 171/381/27 177/366/27
f 148/382/26 152/368/26 170/371/26 166/383/26
f 157/372/26 151/348/26 169/351/26 175/373/26
f 162/353/27 150/374/27 168/375/27 180/354/27
f 153/380/27 146/378/27 165/379/27 171/381/27
f 161/357/28 148/382/28 166/383/28 179/358/28
f 155/376/29 149/352/29 167/355/29 173/377/29
f 163/349/26 147/360/26 164/363/26 181/350/26
f 77/193/5 78/194/5 183/384/5 182/385/5
