# Blender 4.2.2 LTS
# www.blender.org
mtllib curtain.mtl
o Cube
v 0.587348 7.600469 0.193548
v 0.587348 -7.600469 0.193548
v 0.482939 7.600469 0.386276
v 0.482939 -7.600469 0.386276
v -0.482939 7.600469 -0.386276
v -0.482939 -7.600469 -0.386276
v -0.587348 7.600469 -0.193548
v -0.587348 -7.600469 -0.193548
v 2.130174 7.600469 -0.191385
v 2.130174 -7.600469 -0.191385
v 2.159997 7.600469 0.025770
v 2.159997 -7.600469 0.025770
v 0.924239 7.600469 -0.025770
v 0.924239 -7.600469 -0.025770
v 0.954061 7.600469 0.191385
v 0.954061 -7.600469 0.191385
v 3.717072 7.600469 0.193548
v 3.717072 -7.600469 0.193548
v 3.612663 7.600469 0.386276
v 3.612663 -7.600469 0.386276
v 2.646785 7.600469 -0.386276
v 2.646785 -7.600469 -0.386276
v 2.542376 7.600469 -0.193548
v 2.542376 -7.600469 -0.193548
v 5.165850 7.600469 -1.086731
v 5.165850 -7.600469 -1.086731
v 5.289436 7.600469 -0.905701
v 5.289436 -7.600469 -0.905701
v 4.160523 7.600469 -0.400418
v 4.160523 -7.600469 -0.400418
v 4.284109 7.600469 -0.219387
v 4.284109 -7.600469 -0.219387
v -1.074265 7.600469 -0.191385
v -1.074265 -7.600469 -0.191385
v -1.044442 7.600469 0.025770
v -1.044442 -7.600469 0.025770
v -2.280200 7.600469 -0.025770
v -2.280200 -7.600469 -0.025770
v -2.250378 7.600469 0.191385
v -2.250378 -7.600469 0.191385
v -2.576322 7.600469 0.199162
v -2.576322 -7.600469 0.199162
v -2.682572 7.600469 0.390882
v -2.682572 -7.600469 0.390882
v -3.641008 7.600469 -0.390882
v -3.641008 -7.600469 -0.390882
v -3.747258 7.600469 -0.199162
v -3.747258 -7.600469 -0.199162
vn -0.0000 1.0000 -0.0000
vn -0.4763 -0.0000 0.8793
vn -0.8793 -0.0000 -0.4763
vn -0.0000 -1.0000 -0.0000
vn 0.8793 -0.0000 0.4763
vn 0.4763 -0.0000 -0.8793
vn 0.1361 -0.0000 0.9907
vn -0.9907 -0.0000 0.1361
vn 0.9907 -0.0000 -0.1361
vn -0.1361 -0.0000 -0.9907
vn 0.5638 -0.0000 0.8259
vn -0.8259 -0.0000 0.5638
vn 0.8259 -0.0000 -0.5638
vn -0.5638 -0.0000 -0.8259
vn -0.4847 -0.0000 0.8747
vn -0.8747 -0.0000 -0.4847
vn 0.8747 -0.0000 0.4847
vn 0.4847 -0.0000 -0.8747
vt 0.625000 0.500000
vt 0.875000 0.500000
vt 0.875000 0.750000
vt 0.625000 0.750000
vt 0.375000 0.750000
vt 0.625000 1.000000
vt 0.375000 1.000000
vt 0.375000 0.000000
vt 0.625000 0.000000
vt 0.625000 0.250000
vt 0.375000 0.250000
vt 0.125000 0.500000
vt 0.375000 0.500000
vt 0.125000 0.750000
s 0
usemtl Material.005
f 1/1/1 5/2/1 7/3/1 3/4/1
f 4/5/2 3/4/2 7/6/2 8/7/2
f 8/8/3 7/9/3 5/10/3 6/11/3
f 6/12/4 2/13/4 4/5/4 8/14/4
f 2/13/5 1/1/5 3/4/5 4/5/5
f 6/11/6 5/10/6 1/1/6 2/13/6
f 9/1/1 13/2/1 15/3/1 11/4/1
f 12/5/7 11/4/7 15/6/7 16/7/7
f 16/8/8 15/9/8 13/10/8 14/11/8
f 14/12/4 10/13/4 12/5/4 16/14/4
f 10/13/9 9/1/9 11/4/9 12/5/9
f 14/11/10 13/10/10 9/1/10 10/13/10
f 17/1/1 21/2/1 23/3/1 19/4/1
f 20/5/2 19/4/2 23/6/2 24/7/2
f 24/8/3 23/9/3 21/10/3 22/11/3
f 22/12/4 18/13/4 20/5/4 24/14/4
f 18/13/5 17/1/5 19/4/5 20/5/5
f 22/11/6 21/10/6 17/1/6 18/13/6
f 25/1/1 29/2/1 31/3/1 27/4/1
f 28/5/11 27/4/11 31/6/11 32/7/11
f 32/8/12 31/9/12 29/10/12 30/11/12
f 30/12/4 26/13/4 28/5/4 32/14/4
f 26/13/13 25/1/13 27/4/13 28/5/13
f 30/11/14 29/10/14 25/1/14 26/13/14
f 33/1/1 37/2/1 39/3/1 35/4/1
f 36/5/7 35/4/7 39/6/7 40/7/7
f 40/8/8 39/9/8 37/10/8 38/11/8
f 38/12/4 34/13/4 36/5/4 40/14/4
f 34/13/9 33/1/9 35/4/9 36/5/9
f 38/11/10 37/10/10 33/1/10 34/13/10
f 41/1/1 45/2/1 47/3/1 43/4/1
f 44/5/15 43/4/15 47/6/15 48/7/15
f 48/8/16 47/9/16 45/10/16 46/11/16
f 46/12/4 42/13/4 44/5/4 48/14/4
f 42/13/17 41/1/17 43/4/17 44/5/17
f 46/11/18 45/10/18 41/1/18 42/13/18
