# Blender 4.2.2 LTS
# www.blender.org
mtllib key.mtl
o Plane
v -0.000000 -2.496452 1.058390
v -0.413845 2.611263 1.058390
v -0.000000 4.220300 1.058391
v -0.000000 1.769191 1.058390
v -0.000000 2.611263 1.058390
v -0.000000 1.406158 1.058390
v -1.517430 2.756349 1.058390
v -1.517430 3.308227 1.058390
v -0.000000 3.435342 1.058390
v -0.413845 4.220300 1.058391
v -0.413845 3.435342 1.058390
v 0.413845 2.611263 1.058390
v 1.517430 2.756349 1.058390
v 1.517430 3.282244 1.058390
v 0.413845 4.220300 1.058391
v 0.413845 3.435342 1.058390
v -0.000000 -1.879876 1.058390
v -0.000000 -1.593104 1.058390
v -0.000000 -1.039707 1.058390
v -0.000000 -2.496452 0.678390
v -0.413845 2.611263 0.678391
v -0.000000 4.220300 0.678391
v -0.000000 1.769191 0.678390
v -0.000000 2.611263 0.678391
v -0.000000 1.406157 0.678390
v -1.517430 2.756349 0.678390
v -1.517430 3.308227 0.678391
v -0.000000 3.435342 0.678391
v -0.413845 4.220300 0.678391
v -0.413845 3.435342 0.678391
v 0.413845 2.611263 0.678391
v 1.517430 2.756349 0.678390
v 1.517430 3.282244 0.678391
v 0.413845 4.220300 0.678391
v 0.413845 3.435342 0.678391
v -0.000000 -1.879876 0.678390
v -0.000000 -1.593105 0.678390
v -0.000000 -1.039708 0.678390
v -0.413845 1.769191 0.904965
v -0.260419 1.769191 1.058390
v -0.413845 1.922616 1.058390
v -0.528197 1.871479 1.058390
v -0.260419 1.406158 1.058390
v -0.413845 1.406158 0.904965
v -0.260419 -1.039707 1.058390
v -0.413845 -1.039708 0.904965
v -0.413845 -1.193133 1.058390
v -0.305104 1.769191 0.678390
v -0.413845 1.769191 0.787131
v -0.494892 1.841688 0.678390
v -0.413845 1.877932 0.678390
v -0.413845 1.406158 0.787131
v -0.305104 1.406157 0.678390
v -0.413845 -1.039708 0.787131
v -0.305104 -1.039708 0.678390
v -0.413845 -1.148449 0.678390
v 0.257133 1.769191 1.058390
v 0.413845 1.769191 0.901679
v 0.530646 1.873670 1.058390
v 0.413845 1.925902 1.058390
v 0.413845 1.406158 0.901679
v 0.257133 1.406158 1.058390
v 0.413845 -1.879876 0.901679
v 0.257133 -1.879876 1.058390
v 0.413845 -1.593104 0.901679
v 0.257133 -1.593104 1.058390
v 0.257133 -1.039707 1.058390
v 0.413845 -1.039708 0.901679
v 0.413845 1.769191 0.794953
v 0.297282 1.769191 0.678390
v 0.413845 1.885754 0.678390
v 0.500722 1.846903 0.678390
v 0.297282 1.406157 0.678390
v 0.413845 1.406158 0.794953
v 0.297282 -1.879876 0.678390
v 0.413845 -1.879876 0.794953
v 0.297282 -1.593105 0.678390
v 0.413845 -1.593104 0.794953
v 0.413845 -1.039708 0.794953
v 0.297282 -1.039708 0.678390
v -0.413845 -1.479154 1.058390
v -0.413845 -1.593104 0.944440
v -0.413845 -1.707055 1.058390
v -0.299894 -1.593104 1.058390
v -0.906739 -1.593104 0.944440
v -0.906739 -1.479154 1.058390
v -0.906739 -1.153658 1.058390
v -0.906739 -1.039708 0.944440
v -0.413845 -1.593104 0.792341
v -0.413845 -1.479154 0.678390
v -0.299894 -1.593105 0.678390
v -0.413845 -1.707055 0.678390
v -0.906739 -1.479154 0.678390
v -0.906739 -1.593104 0.792341
v -0.906739 -1.039708 0.792341
v -0.906739 -1.153658 0.678390
v -0.453319 -1.039708 0.944440
v -0.453320 -1.153658 1.058390
v -0.413845 -1.148449 0.678390
v -0.413845 -1.039708 0.787131
v -0.413845 -2.298414 1.058390
v -0.413845 -2.496452 0.860353
v -0.215807 -2.496452 1.058390
v -0.413845 -1.879876 0.860353
v -0.413845 -2.077913 1.058390
v -0.215807 -1.879876 1.058390
v -0.413845 -1.707105 1.058390
v -1.181760 -2.496452 0.860353
v -1.181760 -2.298414 1.058390
v -1.181760 -2.077913 1.058390
v -1.181760 -1.879876 0.860353
v -0.413845 -2.496452 0.876427
v -0.413845 -2.298414 0.678390
v -0.215807 -2.496452 0.678390
v -0.413845 -2.077913 0.678390
v -0.413845 -1.879876 0.876427
v -0.413845 -1.707105 0.678390
v -0.215807 -1.879876 0.678390
v -1.181760 -2.298414 0.678390
v -1.181760 -2.496452 0.876427
v -1.181760 -1.879876 0.876427
v -1.181760 -2.077913 0.678390
v 0.326691 -2.496452 0.865579
v 0.413845 -2.409298 0.901679
v 0.133880 -2.496452 1.058390
v 0.257133 -2.409298 1.058390
v 0.297282 -2.409298 0.678390
v 0.174028 -2.496452 0.678390
v 0.326691 -2.496452 0.831053
v 0.413845 -2.409298 0.794953
vn -0.0000 -0.0000 1.0000
vn -0.0000 -0.0000 -1.0000
vn 0.6667 -0.7453 -0.0000
vn -0.0000 1.0000 -0.0000
vn -1.0000 -0.0000 -0.0000
vn 1.0000 -0.0000 -0.0000
vn -0.2600 0.6828 0.6828
vn -0.6371 0.7708 -0.0000
vn -0.0000 -1.0000 -0.0000
vn 0.7071 -0.0000 -0.7071
vn 0.6477 0.7619 -0.0000
vn -0.2608 -0.6826 0.6826
vn -0.5774 0.5773 -0.5774
vn -0.7071 -0.0000 0.7071
vn -0.2608 -0.6826 -0.6826
vn -0.7071 -0.0000 -0.7071
vn -0.6667 -0.7453 -0.0000
vn 0.2608 -0.6826 0.6826
vn 0.7071 -0.0000 0.7071
vn 0.2608 -0.6826 -0.6826
vn -0.0000 -0.7071 0.7071
vn -0.0000 -0.7071 -0.7071
vn -0.0000 0.7071 0.7071
vn -0.0075 0.7071 -0.7071
vn -0.5774 -0.5774 0.5774
vn -0.5774 -0.5774 -0.5774
vn -0.0000 0.7071 -0.7071
vn 0.5000 -0.7071 0.5000
vn 0.5000 -0.7071 -0.5000
vn 0.7071 -0.7071 -0.0000
vt 0.363636 0.750000
vt 0.500000 0.750000
vt 0.500000 1.000000
vt 0.363636 1.000000
vt 0.399467 0.170753
vt 0.399467 0.457447
vt 0.500000 0.457447
vt 0.500000 0.170753
vt 0.414191 0.457447
vt 0.500000 0.500000
vt 0.414191 0.500000
vt 0.401184 0.105886
vt 0.363636 0.119243
vt 0.363636 0.158007
vt 0.500000 0.105886
vt 0.000000 0.669922
vt 0.363636 0.669922
vt 0.000000 0.750000
vt 0.363636 0.530960
vt 0.500000 0.669922
vt 0.402044 0.170753
vt 0.402044 0.457447
vt 0.415273 0.457447
vt 0.415273 0.500000
vt 0.402044 0.072272
vt 0.500000 0.072272
vt 0.402044 0.105886
vt 0.363636 0.531623
vt 0.325150 0.517984
vt 0.363636 0.500000
vt 0.335010 0.513377
vt 0.363636 0.023213
vt 0.363636 0.049059
vt 0.402044 0.170753
vt 0.363636 0.119243
vt 0.414191 0.170753
vt 0.363636 0.152769
vt 0.363636 0.000000
vt 0.363636 0.457447
vt 0.363636 0.457447
vt 0.399467 0.457447
vt 0.399467 0.500000
vt 0.363636 0.170753
vt 0.363636 0.457447
vt 0.363636 0.521943
vt 0.402044 0.457447
vt 0.402044 0.500000
vt 0.363636 0.523521
vt 0.455886 0.000000
vt 0.415273 0.010216
vt 0.415273 0.072272
vt 0.500000 0.000000
vt 0.363636 0.105886
vt 0.363636 0.072272
vt 0.363636 0.157396
vt 0.428891 0.072272
vt 0.363636 0.092524
vt 0.363636 0.092530
vt 0.363636 0.157396
vt 0.363636 0.152769
vt 0.325957 0.517607
vt 0.428891 0.000000
vt 0.363636 0.072272
vt 0.363636 0.531623
vt 0.402044 0.010216
vt 0.363636 0.010216
vt 0.415273 0.105886
vt 0.415273 0.170753
vt 0.335010 0.513377
vt 0.363636 0.119243
vt 0.336931 0.512479
vt 0.325957 0.517607
vt 0.363636 0.010216
vt 0.402044 0.010216
vt 0.442657 0.000000
vt 0.415273 0.010216
vt 0.455886 0.000000
vt 0.392354 0.000000
s 0
f 11/1/1 9/2/1 3/3/1 10/4/1
f 55/5/2 53/6/2 25/7/2 38/8/2
f 43/9/1 6/7/1 4/10/1 40/11/1
f 91/12/2 90/13/2 56/14/2 55/5/2 38/8/2 37/15/2
f 7/16/1 2/17/1 11/1/1 8/18/1
f 8/18/1 11/1/1 10/4/1
f 41/19/1 40/11/1 4/10/1 5/20/1 2/17/1
f 16/1/1 15/4/1 3/3/1 9/2/1
f 80/21/2 38/8/2 25/7/2 73/22/2
f 62/23/1 57/24/1 4/10/1 6/7/1
f 75/25/2 36/26/2 37/15/2 77/27/2
f 13/16/1 14/18/1 16/1/1 12/17/1
f 14/18/1 15/4/1 16/1/1
f 57/24/1 60/28/1 12/17/1 5/20/1 4/10/1
f 13/16/3 59/29/3 58/30/3 69/30/3 72/31/3 32/16/3
f 101/32/1 105/33/1 110/33/1 109/32/1
f 77/27/2 37/15/2 38/8/2 80/34/2
f 81/35/1 84/12/1 18/15/1 19/8/1 45/36/1 47/37/1
f 102/38/4 108/38/4 120/38/4 112/38/4
f 30/1/2 29/4/2 22/3/2 28/2/2
f 44/39/5 39/30/5 49/30/5 52/40/5
f 53/41/2 48/42/2 23/10/2 25/7/2
f 46/43/5 44/44/5 52/44/5 54/43/5
f 26/16/2 27/18/2 30/1/2 21/17/2
f 27/18/2 29/4/2 30/1/2
f 48/42/2 51/45/2 21/17/2 24/20/2 23/10/2
f 35/1/2 28/2/2 22/3/2 34/4/2
f 58/30/6 61/39/6 74/39/6 69/30/6
f 73/46/2 25/7/2 23/10/2 70/47/2
f 61/39/6 68/43/6 79/43/6 74/39/6
f 32/16/2 31/17/2 35/1/2 33/18/2
f 33/18/2 35/1/2 34/4/2
f 71/48/2 70/47/2 23/10/2 24/20/2 31/17/2
f 125/49/1 126/50/1 64/51/1 17/26/1 1/52/1
f 113/32/2 119/32/2 122/33/2 115/33/2
f 65/53/6 63/54/6 76/54/6 78/53/6
f 90/13/2 93/35/2 96/55/2 99/14/2 56/14/2
f 68/43/6 65/53/6 78/53/6 79/43/6
f 118/56/2 117/57/2 92/58/2 91/12/2 37/15/2 36/26/2
f 45/36/7 46/43/7 97/43/7 98/59/7 47/60/7
f 7/16/1 42/61/1 41/19/1 2/17/1
f 101/32/1 103/62/1 1/52/1 17/26/1 106/56/1 105/33/1
f 2/17/4 5/20/4 24/20/4 21/17/4
f 8/18/8 10/4/8 29/4/8 27/18/8
f 7/16/5 8/18/5 27/18/5 26/16/5
f 10/4/4 3/3/4 22/3/4 29/4/4
f 9/2/9 11/1/9 30/1/9 28/2/9
f 11/1/6 2/17/6 21/17/6 30/1/6
f 111/63/9 104/63/9 116/63/9 121/63/9
f 45/36/1 19/8/1 6/7/1 43/9/1
f 13/16/1 12/17/1 60/64/1 59/29/1
f 127/65/10 75/25/10 76/54/10 130/66/10
f 5/20/4 12/17/4 31/17/4 24/20/4
f 15/4/11 14/18/11 33/18/11 34/4/11
f 14/18/6 13/16/6 32/16/6 33/18/6
f 3/3/4 15/4/4 34/4/4 22/3/4
f 16/1/9 9/2/9 28/2/9 35/1/9
f 12/17/5 16/1/5 35/1/5 31/17/5
f 64/51/1 66/67/1 18/15/1 17/26/1
f 67/68/1 62/23/1 6/7/1 19/8/1
f 32/16/2 72/69/2 71/48/2 31/17/2
f 81/13/1 47/60/1 98/59/1 87/59/1 86/70/1
f 66/67/1 67/68/1 19/8/1 18/15/1
f 114/62/2 113/32/2 115/33/2 118/56/2 36/26/2 20/52/2
f 104/63/5 107/57/5 83/58/5 82/53/5 89/53/5 92/58/5 117/57/5 116/63/5
f 107/57/1 106/56/1 17/26/1 18/15/1 84/12/1 83/58/1
f 88/43/4 97/43/4 46/43/4 54/43/4 100/43/4 95/43/4
f 82/53/9 85/53/9 94/53/9 89/53/9
f 85/53/5 86/35/5 87/55/5 88/43/5 95/43/5 96/59/5 93/70/5 94/53/5
f 39/30/12 40/30/12 41/19/12 42/61/12
f 54/43/13 55/43/13 56/14/13 99/14/13 100/43/13
f 45/36/14 43/9/14 44/44/14 46/43/14
f 43/9/14 40/11/14 39/30/14 44/39/14
f 26/16/2 21/17/2 51/45/2 50/71/2
f 48/42/15 49/30/15 50/71/15 51/45/15
f 54/43/16 52/44/16 53/6/16 55/5/16
f 52/40/16 49/30/16 48/42/16 53/41/16
f 39/30/17 42/72/17 7/16/17 26/16/17 50/71/17 49/30/17
f 57/24/18 58/30/18 59/29/18 60/64/18
f 68/43/19 61/39/19 62/23/19 67/68/19
f 61/39/19 58/30/19 57/24/19 62/23/19
f 63/54/6 124/66/6 130/73/6 76/54/6
f 63/54/19 65/53/19 66/67/19 64/51/19
f 65/53/19 68/43/19 67/68/19 66/67/19
f 69/30/20 70/30/20 71/48/20 72/69/20
f 80/21/10 73/22/10 74/39/10 79/43/10
f 73/46/10 70/47/10 69/30/10 74/39/10
f 127/74/2 128/75/2 20/52/2 36/26/2 75/25/2
f 75/25/10 77/27/10 78/53/10 76/54/10
f 77/27/10 80/34/10 79/43/10 78/53/10
f 124/73/19 63/54/19 64/51/19 126/76/19
f 81/13/14 82/53/14 83/58/14 84/12/14
f 89/53/16 90/53/16 91/12/16 92/58/16
f 85/53/21 82/53/21 81/13/21 86/70/21
f 93/35/22 90/13/22 89/53/22 94/53/22
f 97/43/23 88/43/23 87/59/23 98/59/23
f 95/43/24 100/43/24 99/14/24 96/55/24
f 108/38/5 109/32/5 110/33/5 111/63/5 121/63/5 122/33/5 119/32/5 120/38/5
f 101/32/25 102/38/25 103/62/25
f 104/63/14 105/63/14 106/56/14 107/57/14
f 112/38/26 113/38/26 114/62/26
f 115/33/16 116/63/16 117/57/16 118/56/16
f 104/63/23 111/63/23 110/33/23 105/33/23
f 108/38/21 102/38/21 101/32/21 109/32/21
f 115/33/27 122/33/27 121/63/27 116/63/27
f 119/32/22 113/32/22 112/38/22 120/38/22
f 1/52/9 103/62/9 102/38/9 112/38/9 114/62/9 20/52/9
f 125/77/28 123/78/28 124/73/28 126/76/28
f 129/78/29 128/75/29 127/65/29 130/66/29
f 130/73/30 124/66/30 123/78/30 129/78/30
f 123/78/9 125/77/9 1/52/9 20/52/9 128/75/9 129/78/9
