# Blender 4.2.2 LTS
# www.blender.org
mtllib autocarro.mtl
o Cylinder
v 2.277428 -1.444767 4.531625
v 2.770543 -1.444767 4.531625
v 2.277427 -1.670440 3.986804
v 2.770543 -1.670440 3.986804
v 2.277427 -2.215261 3.761131
v 2.770543 -2.215261 3.761131
v 2.277427 -2.760081 3.986804
v 2.770543 -2.760081 3.986804
v 2.277427 -2.985754 4.531625
v 2.770543 -2.985754 4.531625
v 2.277427 -2.760081 5.076446
v 2.770543 -2.760081 5.076446
v 2.277427 -2.215261 5.302118
v 2.770543 -2.215261 5.302118
v 2.277427 -1.670440 5.076446
v 2.770543 -1.670440 5.076446
v -2.277428 -1.444767 4.531625
v -2.770543 -1.444767 4.531625
v -2.277427 -1.670440 3.986804
v -2.770543 -1.670440 3.986804
v -2.277427 -2.215261 3.761131
v -2.770543 -2.215261 3.761131
v -2.277427 -2.760081 3.986804
v -2.770543 -2.760081 3.986804
v -2.277427 -2.985754 4.531625
v -2.770543 -2.985754 4.531625
v -2.277427 -2.760081 5.076446
v -2.770543 -2.760081 5.076446
v -2.277427 -2.215261 5.302118
v -2.770543 -2.215261 5.302118
v -2.277427 -1.670440 5.076446
v -2.770543 -1.670440 5.076446
v 2.277428 -1.444767 -4.531625
v 2.770543 -1.444767 -4.531625
v 2.277427 -1.670440 -3.986804
v 2.770543 -1.670440 -3.986804
v 2.277427 -2.215261 -3.761131
v 2.770543 -2.215261 -3.761131
v 2.277427 -2.760081 -3.986804
v 2.770543 -2.760081 -3.986804
v 2.277427 -2.985754 -4.531625
v 2.770543 -2.985754 -4.531625
v 2.277427 -2.760081 -5.076446
v 2.770543 -2.760081 -5.076446
v 2.277427 -2.215261 -5.302118
v 2.770543 -2.215261 -5.302118
v 2.277427 -1.670440 -5.076446
v 2.770543 -1.670440 -5.076446
v -2.277428 -1.444767 -4.531625
v -2.770543 -1.444767 -4.531625
v -2.277427 -1.670440 -3.986804
v -2.770543 -1.670440 -3.986804
v -2.277427 -2.215261 -3.761131
v -2.770543 -2.215261 -3.761131
v -2.277427 -2.760081 -3.986804
v -2.770543 -2.760081 -3.986804
v -2.277427 -2.985754 -4.531625
v -2.770543 -2.985754 -4.531625
v -2.277427 -2.760081 -5.076446
v -2.770543 -2.760081 -5.076446
v -2.277427 -2.215261 -5.302118
v -2.770543 -2.215261 -5.302118
v -2.277427 -1.670440 -5.076446
v -2.770543 -1.670440 -5.076446
v -2.432725 2.426735 -6.837559
v -2.432725 -2.426735 -6.837559
v 2.420746 2.426735 -6.837559
v 2.420746 -2.426735 -6.837559
v -2.432724 2.426735 5.383055
v -2.432724 -2.426735 7.929029
v 2.420746 2.426735 5.383055
v 2.420747 -2.426735 7.929029
v 2.420747 -0.485347 7.929029
v -2.432724 -0.485347 7.929029
v 2.420746 -0.076140 6.109126
v -2.432724 -0.076140 6.109126
vn -0.0000 0.9239 -0.3827
vn -0.0000 0.3827 -0.9239
vn -0.0000 -0.3827 -0.9239
vn -0.0000 -0.9239 -0.3827
vn -0.0000 -0.9239 0.3827
vn -0.0000 -0.3827 0.9239
vn 1.0000 -0.0000 -0.0000
vn -0.0000 0.3827 0.9239
vn -0.0000 0.9239 0.3827
vn -1.0000 -0.0000 -0.0000
vn -0.0000 1.0000 -0.0000
vn -0.0000 0.2786 0.9604
vn -0.0000 -1.0000 -0.0000
vn -0.0000 -0.0000 -1.0000
vn -0.0000 -0.0000 1.0000
vn -0.0000 0.9756 0.2194
vt 0.675327 0.916648
vt 0.650645 0.916648
vt 0.650645 0.889654
vt 0.675327 0.889654
vt 0.714147 0.828045
vt 0.738829 0.828045
vt 0.738829 0.855315
vt 0.714147 0.855315
vt 0.738829 0.882585
vt 0.714147 0.882585
vt 0.611825 0.882585
vt 0.587143 0.882585
vt 0.587143 0.855315
vt 0.611825 0.855315
vt 0.587143 0.828045
vt 0.611825 0.828045
vt 0.707078 0.944164
vt 0.682396 0.944164
vt 0.682396 0.917279
vt 0.707078 0.917279
vt 0.402544 0.749716
vt 0.423416 0.770587
vt 0.423416 0.800104
vt 0.402545 0.820976
vt 0.373028 0.820976
vt 0.352156 0.800104
vt 0.352156 0.770587
vt 0.373028 0.749716
vt 0.682396 0.889654
vt 0.707078 0.889654
vt 0.675327 0.944178
vt 0.650645 0.944178
vt 0.430485 0.770587
vt 0.451357 0.749716
vt 0.480873 0.749716
vt 0.501745 0.770587
vt 0.501745 0.800104
vt 0.480873 0.820976
vt 0.451357 0.820976
vt 0.430485 0.800104
vt 0.848788 0.899104
vt 0.848788 0.872110
vt 0.873470 0.872110
vt 0.873470 0.899104
vt 0.778216 0.872110
vt 0.778216 0.899379
vt 0.753535 0.899379
vt 0.753535 0.872110
vt 0.778216 0.926649
vt 0.753535 0.926649
vt 0.618894 0.882585
vt 0.618894 0.855315
vt 0.643576 0.855315
vt 0.643576 0.882585
vt 0.618894 0.828045
vt 0.643576 0.828045
vt 0.714147 0.944164
vt 0.714147 0.917279
vt 0.738829 0.917279
vt 0.738829 0.944164
vt 0.529686 0.749716
vt 0.559202 0.749716
vt 0.580074 0.770587
vt 0.580074 0.800104
vt 0.559202 0.820976
vt 0.529686 0.820976
vt 0.508814 0.800104
vt 0.508814 0.770587
vt 0.714147 0.889654
vt 0.738829 0.889654
vt 0.848788 0.926634
vt 0.873470 0.926634
vt 0.658403 0.770587
vt 0.658403 0.800104
vt 0.637531 0.820976
vt 0.608015 0.820976
vt 0.587143 0.800104
vt 0.587143 0.770587
vt 0.608015 0.749716
vt 0.637531 0.749716
vt 0.611825 0.916648
vt 0.611825 0.944178
vt 0.587143 0.944178
vt 0.587143 0.916648
vt 0.376838 0.906374
vt 0.376838 0.933999
vt 0.352156 0.933999
vt 0.352156 0.906374
vt 0.376838 0.960884
vt 0.352156 0.960884
vt 0.675327 0.828045
vt 0.675327 0.855315
vt 0.650645 0.855315
vt 0.650645 0.828045
vt 0.675327 0.882585
vt 0.650645 0.882585
vt 0.785286 0.926649
vt 0.785286 0.899379
vt 0.809968 0.899379
vt 0.809968 0.926649
vt 0.686343 0.749716
vt 0.715860 0.749716
vt 0.736732 0.770587
vt 0.736732 0.800104
vt 0.715860 0.820976
vt 0.686343 0.820976
vt 0.665472 0.800104
vt 0.665472 0.770587
vt 0.785286 0.872110
vt 0.809968 0.872110
vt 0.611825 0.889654
vt 0.587143 0.889654
vt 0.423416 0.848916
vt 0.423416 0.878433
vt 0.402545 0.899305
vt 0.373028 0.899305
vt 0.352156 0.878433
vt 0.352156 0.848916
vt 0.373028 0.828045
vt 0.402545 0.828045
vt 0.618894 0.916648
vt 0.643576 0.916648
vt 0.643576 0.944178
vt 0.618894 0.944178
vt 0.383907 0.906374
vt 0.408589 0.906374
vt 0.408589 0.933999
vt 0.383907 0.933999
vt 0.408589 0.960884
vt 0.383907 0.960884
vt 0.682396 0.828045
vt 0.707078 0.828045
vt 0.707078 0.855315
vt 0.682396 0.855315
vt 0.707078 0.882585
vt 0.682396 0.882585
vt 0.841719 0.926649
vt 0.817037 0.926649
vt 0.817037 0.899379
vt 0.841719 0.899379
vt 0.480873 0.828045
vt 0.501745 0.848916
vt 0.501745 0.878433
vt 0.480873 0.899305
vt 0.451357 0.899305
vt 0.430485 0.878433
vt 0.430485 0.848916
vt 0.451357 0.828045
vt 0.817037 0.872110
vt 0.841719 0.872110
vt 0.618894 0.889654
vt 0.643576 0.889654
vt 0.508814 0.848916
vt 0.529686 0.828045
vt 0.559202 0.828045
vt 0.580074 0.848916
vt 0.580074 0.878433
vt 0.559202 0.899305
vt 0.529686 0.899305
vt 0.508814 0.878433
vt 0.996465 0.003535
vt 0.996465 0.615040
vt 0.753535 0.615040
vt 0.753535 0.003535
vt 0.879934 0.865040
vt 0.753535 0.865040
vt 0.753535 0.622110
vt 0.879934 0.622110
vt 0.496465 0.003535
vt 0.496465 0.742647
vt 0.253535 0.742647
vt 0.253535 0.003535
vt 0.649293 0.742647
vt 0.628811 0.651555
vt 0.503535 0.615213
vt 0.503535 0.003535
vt 0.746465 0.003535
vt 0.746465 0.742647
vt 0.246465 0.992647
vt 0.003535 0.992647
vt 0.003535 0.749716
vt 0.246465 0.749716
vt 0.984123 0.865040
vt 0.887003 0.865040
vt 0.887003 0.622110
vt 0.984123 0.622110
vt 0.246465 0.742647
vt 0.003535 0.742647
vt 0.003535 0.130968
vt 0.128811 0.094626
vt 0.149293 0.003535
vt 0.246465 0.003535
vt 0.345087 0.992647
vt 0.253535 0.992647
vt 0.253535 0.749716
vt 0.345087 0.749716
s 0
usemtl Material
f 1/1/1 2/2/1 4/3/1 3/4/1
f 3/5/2 4/6/2 6/7/2 5/8/2
f 5/8/3 6/7/3 8/9/3 7/10/3
f 7/11/4 8/12/4 10/13/4 9/14/4
f 9/14/5 10/13/5 12/15/5 11/16/5
f 11/17/6 12/18/6 14/19/6 13/20/6
f 4/21/7 2/22/7 16/23/7 14/24/7 12/25/7 10/26/7 8/27/7 6/28/7
f 13/20/8 14/19/8 16/29/8 15/30/8
f 15/31/9 16/32/9 2/2/9 1/1/9
f 1/33/10 3/34/10 5/35/10 7/36/10 9/37/10 11/38/10 13/39/10 15/40/10
f 17/41/1 19/42/1 20/43/1 18/44/1
f 19/45/2 21/46/2 22/47/2 20/48/2
f 21/46/3 23/49/3 24/50/3 22/47/3
f 23/51/4 25/52/4 26/53/4 24/54/4
f 25/52/5 27/55/5 28/56/5 26/53/5
f 27/57/6 29/58/6 30/59/6 28/60/6
f 20/61/10 22/62/10 24/63/10 26/64/10 28/65/10 30/66/10 32/67/10 18/68/10
f 29/58/8 31/69/8 32/70/8 30/59/8
f 31/71/9 17/41/9 18/44/9 32/72/9
f 17/73/7 31/74/7 29/75/7 27/76/7 25/77/7 23/78/7 21/79/7 19/80/7
f 33/81/9 35/82/9 36/83/9 34/84/9
f 35/85/8 37/86/8 38/87/8 36/88/8
f 37/86/6 39/89/6 40/90/6 38/87/6
f 39/91/5 41/92/5 42/93/5 40/94/5
f 41/92/4 43/95/4 44/96/4 42/93/4
f 43/97/3 45/98/3 46/99/3 44/100/3
f 36/101/7 38/102/7 40/103/7 42/104/7 44/105/7 46/106/7 48/107/7 34/108/7
f 45/98/2 47/109/2 48/110/2 46/99/2
f 47/111/1 33/81/1 34/84/1 48/112/1
f 33/113/10 47/114/10 45/115/10 43/116/10 41/117/10 39/118/10 37/119/10 35/120/10
f 49/121/9 50/122/9 52/123/9 51/124/9
f 51/125/8 52/126/8 54/127/8 53/128/8
f 53/128/6 54/127/6 56/129/6 55/130/6
f 55/131/5 56/132/5 58/133/5 57/134/5
f 57/134/4 58/133/4 60/135/4 59/136/4
f 59/137/3 60/138/3 62/139/3 61/140/3
f 52/141/10 50/142/10 64/143/10 62/144/10 60/145/10 58/146/10 56/147/10 54/148/10
f 61/140/2 62/139/2 64/149/2 63/150/2
f 63/151/1 64/152/1 50/122/1 49/121/1
f 49/153/7 51/154/7 53/155/7 55/156/7 57/157/7 59/158/7 61/159/7 63/160/7
f 65/161/11 69/162/11 71/163/11 67/164/11
f 75/165/12 71/166/12 69/167/12 76/168/12
f 70/169/13 66/170/13 68/171/13 72/172/13
f 74/173/10 76/174/10 69/175/10 65/176/10 66/177/10 70/178/10
f 66/179/14 65/180/14 67/181/14 68/182/14
f 72/183/15 73/184/15 74/185/15 70/186/15
f 68/187/7 67/188/7 71/189/7 75/190/7 73/191/7 72/192/7
f 73/193/16 75/194/16 76/195/16 74/196/16
