# Blender 4.2.2 LTS
# www.blender.org
o Cube.001
v -5.103258 -6.285485 1.344856
v -5.103258 5.708106 1.344856
v -3.129336 -6.261566 0.255428
v -3.129336 4.655484 0.255428
v 0.437013 -6.285485 8.189013
v 0.437013 5.708106 8.189013
v 1.913643 -6.261566 6.485258
v 1.913643 4.655484 6.485258
v -0.520295 -0.758814 7.550311
v -0.520295 0.758815 7.550311
v -0.143797 -0.758814 7.245540
v -0.143797 0.758815 7.245540
v -0.333913 -0.758814 7.780557
v -0.333913 0.758815 7.780557
v 0.042585 -0.758814 7.475787
v 0.042585 0.758815 7.475787
v 4.493046 5.836814 -0.771767
v 4.493046 5.836814 0.771767
v -4.493046 5.836814 -0.771767
v -4.493046 5.836814 0.771767
v 5.121585 -6.465352 -0.771767
v -5.121585 -6.465352 -0.771767
v 5.121585 6.465352 -0.771767
v -5.121585 -6.465352 0.771767
v -5.121585 6.465352 0.771767
v 5.121585 6.465352 0.771767
v 5.121585 -6.465352 0.771767
v -5.121585 6.465352 -0.771767
v -4.478978 -6.465352 0.771767
v 4.513920 -6.465352 0.771767
v 4.561608 -6.465352 -0.771767
v -4.500565 -6.465352 -0.771767
vn -0.4832 -0.0000 -0.8755
vn 0.7773 -0.0000 -0.6292
vn 0.7557 -0.0000 0.6549
vn -0.7773 -0.0000 0.6292
vn 0.3330 0.9036 -0.2696
vn -0.6292 -0.0000 -0.7773
vn 0.6292 -0.0000 0.7773
vn -0.0000 -1.0000 -0.0000
vn -0.0000 1.0000 -0.0000
vn -1.0000 -0.0000 -0.0000
vn 1.0000 -0.0000 -0.0000
vn -0.0000 -0.0000 1.0000
vn -0.0000 -0.0000 -1.0000
vn 1.0000 0.0003 -0.0070
vn -0.9999 -0.0036 -0.0154
vn 0.0084 -0.9999 -0.0068
vt 0.219481 0.108127
vt 0.003103 0.108089
vt 0.022163 0.003103
vt 0.219119 0.003138
vt 0.226124 0.003103
vt 0.423080 0.003103
vt 0.423072 0.608392
vt 0.226116 0.608392
vt 0.442064 0.775020
vt 0.225687 0.775020
vt 0.219481 0.778411
vt 0.003103 0.778372
vt 0.687761 0.622907
vt 0.687761 0.003103
vt 0.757960 0.097459
vt 0.757960 0.778382
vt 0.648058 0.599904
vt 0.675438 0.599901
vt 0.675431 0.629377
vt 0.648052 0.629380
vt 0.675431 0.571146
vt 0.648051 0.571146
vt 0.648052 0.548775
vt 0.675432 0.548775
vt 0.648051 0.518926
vt 0.675431 0.518926
vt 0.648052 0.577355
vt 0.675431 0.577352
vt 0.648051 0.635586
vt 0.659098 0.655654
vt 0.659098 0.686770
vt 0.648051 0.666703
vt 0.676315 0.666673
vt 0.665304 0.686760
vt 0.665304 0.655673
vt 0.676315 0.635586
vt 0.448270 0.769632
vt 0.448270 0.518926
vt 0.598710 0.519170
vt 0.598710 0.769876
vt 0.839131 0.475878
vt 0.839131 0.242593
vt 0.989552 0.242597
vt 0.989552 0.475881
vt 0.604917 0.518926
vt 0.620177 0.518926
vt 0.620707 0.669391
vt 0.604917 0.669391
vt 0.839131 0.236387
vt 0.839131 0.003103
vt 0.989578 0.003103
vt 0.989578 0.236387
vt 0.681555 0.018894
vt 0.459610 0.018548
vt 0.448270 0.003103
vt 0.681555 0.003103
vt 0.459610 0.497274
vt 0.681555 0.497459
vt 0.681555 0.512720
vt 0.448270 0.512719
vt 0.681555 0.274775
vt 0.459610 0.276459
vt 0.448270 0.261014
vt 0.681555 0.261014
vt 0.459610 0.239363
vt 0.448270 0.254808
vt 0.626913 0.669391
vt 0.628085 0.518925
vt 0.641845 0.518925
vt 0.641845 0.669391
vt 0.681555 0.239876
vt 0.681555 0.254808
vt 0.989578 0.482087
vt 0.989573 0.704032
vt 0.839135 0.704032
vt 0.839131 0.482087
vt 0.598736 0.776082
vt 0.598736 0.996897
vt 0.448270 0.996897
vt 0.448270 0.776082
vt 0.839131 0.710243
vt 0.989552 0.710238
vt 0.989524 0.932185
vt 0.839131 0.932188
vt 0.764166 0.778382
vt 0.764166 0.158578
vt 0.832925 0.003103
vt 0.832925 0.684026
s 0
f 1/1/1 2/2/1 4/3/1 3/4/1
f 3/5/2 4/6/2 8/7/2 7/8/2
f 7/8/3 8/7/3 6/9/3 5/10/3
f 5/11/4 6/12/4 2/2/4 1/1/4
f 8/13/5 4/14/5 2/15/5 6/16/5
f 9/17/6 10/18/6 12/19/6 11/20/6
f 11/21/2 12/22/2 16/23/2 15/24/2
f 15/24/7 16/23/7 14/25/7 13/26/7
f 13/27/4 14/28/4 10/18/4 9/17/4
f 11/29/8 15/30/8 13/31/8 9/32/8
f 16/33/9 12/34/9 10/35/9 14/36/9
f 23/37/9 28/38/9 25/39/9 26/40/9
f 24/41/10 25/42/10 28/43/10 22/44/10
f 22/45/8 32/46/8 29/47/8 24/48/8
f 21/49/11 23/50/11 26/51/11 27/52/11
f 29/53/12 20/54/12 25/55/12 24/56/12
f 19/57/13 32/58/13 22/59/13 28/60/13
f 31/61/13 17/62/13 23/63/13 21/64/13
f 20/54/12 18/65/12 26/66/12 25/55/12
f 17/62/13 19/57/13 28/60/13 23/63/13
f 30/67/8 31/68/8 21/69/8 27/70/8
f 18/65/12 30/71/12 27/72/12 26/66/12
f 20/73/14 29/74/14 32/75/14 19/76/14
f 18/77/8 20/78/8 19/79/8 17/80/8
f 18/81/15 17/82/15 31/83/15 30/84/15
f 3/85/16 7/86/16 5/87/16 1/88/16
