# Blender 4.2.2 LTS
# www.blender.org
mtllib majedouro.mtl
o Cube
v -1.205682 0.394344 0.002209
v -1.205682 0.394344 0.379601
v -1.243195 -0.147764 0.313284
v -1.401653 0.361080 0.490290
v -1.289606 0.001272 0.438446
v -0.244833 -0.490290 0.490290
v -0.777779 -0.490290 0.313284
v -0.621683 -0.490290 0.438446
v -0.953010 -0.240930 0.490290
v -1.062695 -0.389967 0.313284
v -1.030569 -0.346315 0.438446
v -0.777779 -0.490290 0.002209
v -1.243194 -0.147764 0.002209
v -1.062695 -0.389967 0.002209
v -1.316371 0.490290 0.490290
v -1.316371 0.490290 0.002209
v -1.220344 0.490290 0.394263
v -1.220344 0.490290 0.002209
v -1.163489 -0.640530 0.423812
v -0.613999 -0.095576 0.423812
v -1.322245 -0.640530 0.423812
v -0.772754 0.065854 0.423812
v -1.163489 -0.640530 0.284322
v -0.613999 -0.095576 0.284322
v -1.322245 -0.640530 0.284322
v -0.772754 0.065854 0.284322
v -0.003012 -0.490290 0.002209
v -0.003012 0.490290 0.490290
v -0.003012 -0.490290 0.490290
v 1.404570 0.370448 0.002209
v 1.205682 0.394344 0.002209
v 1.205682 0.394344 0.379601
v 1.243195 -0.147764 0.313284
v 1.401653 0.361080 0.490290
v 1.289606 0.001272 0.438446
v 0.244833 -0.490290 0.490290
v 0.777779 -0.490290 0.313284
v 0.621683 -0.490290 0.438446
v 0.953010 -0.240930 0.490290
v 1.062695 -0.389967 0.313284
v 1.030569 -0.346315 0.438446
v 0.777779 -0.490290 0.002209
v 1.243194 -0.147764 0.002209
v 1.062695 -0.389967 0.002209
v 1.316371 0.490290 0.490290
v -0.003012 0.394344 0.002209
v -0.003012 0.394344 0.379601
v 1.316371 0.490290 0.002209
v -0.003012 0.490290 0.394263
v 1.220344 0.490290 0.394263
v 1.220344 0.490290 0.002209
v 1.163489 -0.640530 0.423812
v 0.613999 -0.095576 0.423812
v 1.322245 -0.640530 0.423812
v 0.772754 0.065854 0.423812
v 1.163489 -0.640530 0.284322
v 0.613999 -0.095576 0.284322
v 1.322245 -0.640530 0.284322
v 0.772754 0.065854 0.284322
v -1.205682 0.394344 -0.379601
v -1.243195 -0.147764 -0.313284
v -1.401653 0.361080 -0.490290
v -1.289606 0.001272 -0.438446
v -0.244833 -0.490290 -0.490290
v -0.777779 -0.490290 -0.313284
v -0.621683 -0.490290 -0.438446
v -0.953010 -0.240930 -0.490290
v -1.062695 -0.389967 -0.313284
v -1.030569 -0.346315 -0.438446
v -1.316371 0.490290 -0.490290
v -1.220344 0.490290 -0.394263
v -1.163489 -0.640530 -0.423812
v -0.613999 -0.095576 -0.423812
v -1.322245 -0.640530 -0.423812
v -0.772754 0.065854 -0.423812
v -1.163489 -0.640530 -0.284322
v -0.613999 -0.095576 -0.284322
v -1.322245 -0.640530 -0.284322
v -0.772754 0.065854 -0.284322
v -0.003012 0.490290 -0.490290
v -0.003012 -0.490290 -0.490290
v 1.205682 0.394344 -0.379601
v 1.243195 -0.147764 -0.313284
v 1.401653 0.361080 -0.490290
v 1.289606 0.001272 -0.438446
v 0.244833 -0.490290 -0.490290
v 0.777779 -0.490290 -0.313284
v 0.621683 -0.490290 -0.438446
v 0.953010 -0.240930 -0.490290
v 1.062695 -0.389967 -0.313284
v 1.030569 -0.346315 -0.438446
v 1.316371 0.490290 -0.490290
v -0.003012 0.394344 -0.379601
v -0.003012 0.490290 -0.394263
v 1.220344 0.490290 -0.394263
v 1.163489 -0.640530 -0.423812
v 0.613999 -0.095576 -0.423812
v 1.322245 -0.640530 -0.423812
v 0.772754 0.065854 -0.423812
v 1.163489 -0.640530 -0.284322
v 0.613999 -0.095576 -0.284322
v 1.322245 -0.640530 -0.284322
v 0.772754 0.065854 -0.284322
vn -0.0000 1.0000 -0.0000
vn -0.8018 -0.5976 -0.0000
vn -0.0000 -0.0000 1.0000
vn -0.1271 -0.3610 0.9239
vn -0.3068 -0.8714 0.3827
vn -0.3068 -0.2287 0.9239
vn -0.7408 -0.5521 0.3827
vn -0.9548 -0.2973 -0.0000
vn -0.3321 -0.9432 -0.0000
vn 0.9885 0.1511 -0.0000
vn -0.0000 0.1511 -0.9885
vn -0.7893 0.6140 -0.0000
vn -0.0000 -0.0000 -1.0000
vn 0.7042 -0.7100 -0.0000
vn -0.0000 -1.0000 -0.0000
vn 0.7130 0.7012 -0.0000
vn 0.8018 -0.5976 -0.0000
vn 0.8205 0.5715 0.0079
vn 0.1271 -0.3610 0.9239
vn 0.3068 -0.8714 0.3827
vn 0.3068 -0.2287 0.9239
vn 0.7408 -0.5521 0.3827
vn 0.9548 -0.2973 -0.0000
vn 0.3321 -0.9432 -0.0000
vn -0.9885 0.1511 -0.0000
vn 0.7893 0.6140 -0.0000
vn -0.7042 -0.7100 -0.0000
vn -0.7130 0.7012 -0.0000
vn -0.1271 -0.3610 -0.9239
vn -0.3068 -0.8714 -0.3827
vn -0.3068 -0.2287 -0.9239
vn -0.7408 -0.5521 -0.3827
vn -0.0000 0.1511 0.9885
vn 0.8205 0.5715 -0.0079
vn 0.1271 -0.3610 -0.9239
vn 0.3068 -0.8714 -0.3827
vn 0.3068 -0.2287 -0.9239
vn 0.7408 -0.5521 -0.3827
vn -0.8346 0.5509 -0.0000
vt 0.389632 0.593131
vt 0.389632 0.836520
vt 0.313639 0.836520
vt 0.313639 0.593131
vt 0.737555 0.173087
vt 0.674915 0.173087
vt 0.674915 0.113403
vt 0.737555 0.113403
vt 0.202510 0.288689
vt 0.005251 0.288689
vt 0.005251 0.023011
vt 0.031244 0.005839
vt 0.152347 0.096179
vt 0.202510 0.238781
vt 0.174012 0.080562
vt 0.202975 0.162897
vt 0.649712 0.229655
vt 0.649712 0.167952
vt 0.674915 0.216082
vt 0.104089 0.028401
vt 0.649712 0.082299
vt 0.727115 0.371524
vt 0.701912 0.402628
vt 0.737555 0.216082
vt 0.549824 0.251592
vt 0.628770 0.251592
vt 0.628770 0.270929
vt 0.530488 0.270929
vt 0.549824 0.005251
vt 0.530488 0.005251
vt 0.627869 0.786684
vt 0.627869 0.862678
vt 0.611718 0.862678
vt 0.611718 0.783732
vt 0.965077 0.599186
vt 0.965077 0.842575
vt 0.945907 0.845527
vt 0.945907 0.599186
vt 0.593078 0.753589
vt 0.573126 0.599114
vt 0.618301 0.593131
vt 0.618301 0.773230
vt 0.251645 0.970653
vt 0.251645 0.860005
vt 0.279734 0.860005
vt 0.279734 0.970653
vt 0.894552 0.185350
vt 0.894552 0.005251
vt 0.939726 0.011234
vt 0.919775 0.165709
vt 0.174463 0.974794
vt 0.174463 0.828038
vt 0.202552 0.828038
vt 0.202552 0.974794
vt 0.518687 0.875111
vt 0.518687 0.847022
vt 0.532491 0.847022
vt 0.532491 0.875111
vt 0.251645 0.828038
vt 0.279734 0.828038
vt 0.476128 0.836520
vt 0.400135 0.836520
vt 0.400135 0.593131
vt 0.476128 0.593131
vt 0.096069 0.760967
vt 0.096069 0.701283
vt 0.158709 0.701283
vt 0.158709 0.760967
vt 0.421703 0.023011
vt 0.421703 0.005251
vt 0.519985 0.005251
vt 0.519985 0.023011
vt 0.410736 0.005251
vt 0.410736 0.055159
vt 0.360573 0.197761
vt 0.237585 0.288689
vt 0.213477 0.270929
vt 0.213477 0.005251
vt 0.411200 0.131043
vt 0.382238 0.213378
vt 0.183912 0.817535
vt 0.158709 0.803962
vt 0.183912 0.755832
vt 0.312315 0.265539
vt 0.239470 0.288101
vt 0.183912 0.670179
vt 0.215293 0.670179
vt 0.239470 0.299779
vt 0.240497 0.701283
vt 0.096069 0.803962
vt 0.441040 0.042348
vt 0.519985 0.042348
vt 0.441040 0.288689
vt 0.421703 0.288689
vt 0.454877 0.923016
vt 0.438726 0.925968
vt 0.438726 0.847022
vt 0.454877 0.847022
vt 0.969398 0.251592
vt 0.950229 0.251592
vt 0.950229 0.005251
vt 0.969398 0.008204
vt 0.864098 0.546911
vt 0.838875 0.566551
vt 0.838875 0.386453
vt 0.884049 0.392435
vt 0.352230 0.847022
vt 0.380318 0.847022
vt 0.380318 0.957670
vt 0.352230 0.957670
vt 0.879728 0.779285
vt 0.854505 0.759645
vt 0.834553 0.605169
vt 0.879728 0.599186
vt 0.922640 0.533209
vt 0.894552 0.533209
vt 0.894552 0.386453
vt 0.922640 0.386453
vt 0.894552 0.547013
vt 0.922640 0.547013
vt 0.380318 0.989638
vt 0.352230 0.989638
vt 0.486631 0.593131
vt 0.562624 0.593131
vt 0.562624 0.836520
vt 0.486631 0.836520
vt 0.639273 0.462313
vt 0.639273 0.402628
vt 0.701912 0.462313
vt 0.202510 0.299191
vt 0.202510 0.349099
vt 0.152347 0.491701
vt 0.029359 0.582629
vt 0.005251 0.564869
vt 0.005251 0.299191
vt 0.202975 0.424983
vt 0.174012 0.507318
vt 0.727115 0.518881
vt 0.701912 0.505308
vt 0.727115 0.457178
vt 0.104089 0.559479
vt 0.031244 0.582041
vt 0.639273 0.505308
vt 0.500649 0.545532
vt 0.519985 0.564869
vt 0.421703 0.564869
vt 0.421703 0.545532
vt 0.500649 0.299191
vt 0.519985 0.299191
vt 0.481531 0.923016
vt 0.465379 0.925968
vt 0.465379 0.847022
vt 0.481531 0.847022
vt 0.969398 0.508435
vt 0.950229 0.508435
vt 0.950229 0.262095
vt 0.969398 0.265047
vt 0.915453 0.759645
vt 0.890230 0.779285
vt 0.890230 0.599186
vt 0.935404 0.605169
vt 0.313639 0.847022
vt 0.341727 0.847022
vt 0.341727 0.957670
vt 0.313639 0.957670
vt 0.884049 0.185350
vt 0.858826 0.165709
vt 0.838875 0.011234
vt 0.884049 0.005251
vt 0.241143 0.974794
vt 0.213054 0.974794
vt 0.213054 0.828038
vt 0.241143 0.828038
vt 0.542993 0.847022
vt 0.556798 0.847022
vt 0.556798 0.875111
vt 0.542993 0.875111
vt 0.341727 0.989638
vt 0.313639 0.989638
vt 0.748057 0.842575
vt 0.748057 0.599186
vt 0.824051 0.599186
vt 0.824051 0.842575
vt 0.303136 0.760967
vt 0.240497 0.760967
vt 0.303136 0.701283
vt 0.628770 0.316951
vt 0.530488 0.316951
vt 0.530488 0.299191
vt 0.628770 0.299191
vt 0.410736 0.582629
vt 0.213477 0.582629
vt 0.213477 0.316951
vt 0.360573 0.390120
vt 0.410736 0.532721
vt 0.382238 0.374502
vt 0.411200 0.456837
vt 0.215293 0.817535
vt 0.215293 0.755832
vt 0.240497 0.803962
vt 0.312315 0.322341
vt 0.303136 0.803962
vt 0.609434 0.336288
vt 0.530488 0.336288
vt 0.609434 0.582629
vt 0.628770 0.582629
vt 0.508184 0.849975
vt 0.508184 0.925968
vt 0.492033 0.925968
vt 0.492033 0.847022
vt 0.994749 0.599186
vt 0.994749 0.842575
vt 0.975579 0.845527
vt 0.975579 0.599186
vt 0.858826 0.356310
vt 0.838875 0.201834
vt 0.884049 0.195852
vt 0.884049 0.375950
vt 0.400135 0.989638
vt 0.400135 0.878990
vt 0.428223 0.878990
vt 0.428223 0.989638
vt 0.894552 0.375950
vt 0.894552 0.195852
vt 0.939726 0.201834
vt 0.919775 0.356310
vt 0.573126 0.930488
vt 0.573126 0.783732
vt 0.601215 0.783732
vt 0.601215 0.930488
vt 0.601215 0.944292
vt 0.573126 0.944292
vt 0.400135 0.847022
vt 0.428223 0.847022
s 0
usemtl Material
f 46/1/1 1/2/1 2/3/1 47/4/1
f 14/5/2 10/6/2 3/7/2 13/8/2
f 29/9/3 28/10/3 15/11/3 4/12/3 9/13/3 6/14/3
f 6/14/4 9/13/4 11/15/4 8/16/4
f 8/17/5 11/18/5 10/6/5 7/19/5
f 9/13/6 4/12/6 5/20/6 11/15/6
f 11/18/7 5/21/7 3/7/7 10/6/7
f 3/7/8 5/21/8 63/22/8 61/23/8
f 12/24/9 7/19/9 10/6/9 14/5/9
f 17/25/1 18/26/1 16/27/1 15/28/1
f 49/29/1 17/25/1 15/28/1 28/30/1
f 2/31/10 1/32/10 18/33/10 17/34/10
f 47/35/11 2/36/11 17/37/11 49/38/11
f 19/39/3 20/40/3 22/41/3 21/42/3
f 21/43/12 22/44/12 26/45/12 25/46/12
f 25/47/13 26/48/13 24/49/13 23/50/13
f 23/51/14 24/52/14 20/53/14 19/54/14
f 21/55/15 25/56/15 23/57/15 19/58/15
f 26/45/16 22/44/16 20/59/16 24/60/16
f 46/61/1 47/62/1 32/63/1 31/64/1
f 44/65/17 43/66/17 33/67/17 40/68/17
f 45/69/18 34/70/18 30/71/18 48/72/18
f 29/73/3 36/74/3 39/75/3 34/76/3 45/77/3 28/78/3
f 36/74/19 38/79/19 41/80/19 39/75/19
f 38/81/20 37/82/20 40/68/20 41/83/20
f 39/75/21 41/80/21 35/84/21 34/85/21
f 41/83/22 40/68/22 33/67/22 35/86/22
f 35/86/23 85/87/23 84/88/23 34/85/23
f 33/67/23 83/89/23 85/87/23 35/86/23
f 42/90/24 44/65/24 40/68/24 37/82/24
f 50/91/1 45/69/1 48/72/1 51/92/1
f 49/93/1 28/94/1 45/69/1 50/91/1
f 32/95/25 50/96/25 51/97/25 31/98/25
f 47/99/11 49/100/11 50/101/11 32/102/11
f 52/103/3 54/104/3 55/105/3 53/106/3
f 54/107/26 58/108/26 59/109/26 55/110/26
f 58/111/13 56/112/13 57/113/13 59/114/13
f 56/115/27 52/116/27 53/117/27 57/118/27
f 54/119/15 52/116/15 56/115/15 58/120/15
f 59/109/28 57/121/28 53/122/28 55/110/28
f 46/123/1 93/124/1 60/125/1 1/126/1
f 14/127/2 13/128/2 61/23/2 68/129/2
f 81/130/13 64/131/13 67/132/13 62/133/13 70/134/13 80/135/13
f 64/131/29 66/136/29 69/137/29 67/132/29
f 66/138/30 65/139/30 68/129/30 69/140/30
f 67/132/31 69/137/31 63/141/31 62/142/31
f 69/140/32 68/129/32 61/23/32 63/22/32
f 12/143/9 14/127/9 68/129/9 65/139/9
f 71/144/1 70/145/1 16/146/1 18/147/1
f 94/148/1 80/149/1 70/145/1 71/144/1
f 60/150/10 71/151/10 18/152/10 1/153/10
f 93/154/33 94/155/33 71/156/33 60/157/33
f 72/158/13 74/159/13 75/160/13 73/161/13
f 74/162/12 78/163/12 79/164/12 75/165/12
f 78/166/3 76/167/3 77/168/3 79/169/3
f 76/170/14 72/171/14 73/172/14 77/173/14
f 74/174/15 72/175/15 76/176/15 78/177/15
f 79/164/16 77/178/16 73/179/16 75/165/16
f 46/180/1 31/181/1 82/182/1 93/183/1
f 44/184/17 90/185/17 83/89/17 43/186/17
f 92/187/34 48/188/34 30/189/34 84/190/34
f 81/191/13 80/192/13 92/193/13 84/88/13 89/194/13 86/195/13
f 86/195/35 89/194/35 91/196/35 88/197/35
f 88/198/36 91/199/36 90/185/36 87/200/36
f 89/194/37 84/88/37 85/201/37 91/196/37
f 91/199/38 85/87/38 83/89/38 90/185/38
f 42/202/24 87/200/24 90/185/24 44/184/24
f 95/203/1 51/204/1 48/188/1 92/187/1
f 94/205/1 95/203/1 92/187/1 80/206/1
f 82/207/25 31/208/25 51/209/25 95/210/25
f 93/211/33 82/212/33 95/213/33 94/214/33
f 96/215/13 97/216/13 99/217/13 98/218/13
f 98/219/26 99/220/26 103/221/26 102/222/26
f 102/223/3 103/224/3 101/225/3 100/226/3
f 100/227/27 101/228/27 97/229/27 96/230/27
f 98/231/15 102/232/15 100/227/15 96/230/15
f 103/221/28 99/220/28 97/233/28 101/234/28
f 5/21/8 4/12/8 62/142/8 63/22/8
f 15/11/39 70/134/39 62/133/39 4/12/39
l 27 29
l 27 81
