# Blender 4.2.2 LTS
# www.blender.org
mtllib warn_sign.mtl
o Cube
v -1.280876 2.070067 0.237295
v -1.280876 2.070067 -0.237295
v 1.342852 2.070067 -0.237295
v 1.342852 2.070067 0.237295
v -0.028352 4.098814 -0.237295
v -0.015895 4.098814 0.237295
v 0.178606 2.162297 -0.070572
v 0.070572 2.162297 -0.178606
v 0.070572 -0.101707 -0.178606
v 0.178606 -0.101707 -0.070572
v 0.070572 2.162297 0.178606
v 0.178606 2.162297 0.070572
v 0.178606 -0.101707 0.070572
v 0.070572 -0.101707 0.178606
v -0.070572 2.162297 -0.178606
v -0.178606 2.162297 -0.070572
v -0.178606 -0.101707 -0.070572
v -0.070572 -0.101707 -0.178606
v -0.178606 2.162297 0.070572
v -0.070572 2.162297 0.178606
v -0.070572 -0.101707 0.178606
v -0.178606 -0.101707 0.070572
vn -0.0000 -1.0000 -0.0000
vn -1.0000 -0.0000 -0.0000
vn -0.0000 -0.0000 -1.0000
vn -0.0000 -0.0000 1.0000
vn -0.0000 1.0000 -0.0000
vn 1.0000 -0.0000 -0.0000
vn 0.7071 -0.0000 -0.7071
vn -0.7071 -0.0000 0.7071
vn 0.7071 -0.0000 0.7071
vn -0.7071 -0.0000 -0.7071
vn -0.8497 0.5272 0.0112
vn 0.8296 0.5582 -0.0109
vt 0.053407 0.573572
vt 0.022499 0.573572
vt 0.002310 0.553383
vt 0.002310 0.522475
vt 0.022499 0.502285
vt 0.053407 0.502285
vt 0.073597 0.522475
vt 0.073597 0.553383
vt 0.834875 0.930939
vt 0.834875 0.490628
vt 0.863427 0.490580
vt 0.863427 0.930892
vt 0.002310 0.200447
vt 0.442056 0.002309
vt 0.442056 0.497666
vt 0.669794 0.948578
vt 0.669794 0.490580
vt 0.698347 0.490580
vt 0.698347 0.948578
vt 0.129313 0.573572
vt 0.098406 0.573572
vt 0.078216 0.553383
vt 0.078216 0.522475
vt 0.098406 0.502285
vt 0.129313 0.502285
vt 0.149503 0.522475
vt 0.149503 0.553383
vt 0.746676 0.948578
vt 0.746676 0.490580
vt 0.775229 0.490580
vt 0.775229 0.948578
vt 0.724821 0.948578
vt 0.724821 0.490580
vt 0.720202 0.490580
vt 0.720202 0.948578
vt 0.647939 0.948578
vt 0.647939 0.490580
vt 0.801703 0.490580
vt 0.801703 0.948578
vt 0.779848 0.948578
vt 0.779848 0.490580
vt 0.830255 0.490580
vt 0.830255 0.948578
vt 0.542694 0.955724
vt 0.446688 0.955567
vt 0.446675 0.490580
vt 0.542694 0.491431
vt 0.997690 0.002310
vt 0.997690 0.533079
vt 0.901683 0.533079
vt 0.901683 0.002310
vt 0.446675 0.205130
vt 0.897064 0.002309
vt 0.897064 0.485961
vt 0.643320 0.900987
vt 0.547313 0.900987
vt 0.547313 0.490580
vt 0.643320 0.490580
s 0
usemtl Material
f 17/1/1 18/2/1 9/3/1 10/4/1 13/5/1 14/6/1 21/7/1 22/8/1
f 22/9/2 19/10/2 16/11/2 17/12/2
f 2/13/3 5/14/3 3/15/3
f 14/16/4 11/17/4 20/18/4 21/19/4
f 7/20/5 8/21/5 15/22/5 16/23/5 19/24/5 20/25/5 11/26/5 12/27/5
f 10/28/6 7/29/6 12/30/6 13/31/6
f 7/29/7 10/28/7 9/32/7 8/33/7
f 21/19/8 20/18/8 19/34/8 22/35/8
f 11/17/9 14/16/9 13/36/9 12/37/9
f 15/38/10 18/39/10 17/40/10 16/41/10
f 18/39/3 15/38/3 8/42/3 9/43/3
f 2/44/11 1/45/11 6/46/11 5/47/11
f 2/48/1 3/49/1 4/50/1 1/51/1
f 4/52/4 6/53/4 1/54/4
f 4/55/12 3/56/12 5/57/12 6/58/12
