# Blender 4.2.2 LTS
# www.blender.org
mtllib vitrine.mtl
o Cube
v 9.317449 2.151425 -3.931568
v 9.557448 -3.036885 -3.931568
v 9.557448 -3.036885 3.931568
v -9.317449 2.151425 -3.931568
v -9.557448 -3.036885 -3.931568
v -9.557448 -3.036885 3.931568
v -9.557448 -3.036885 1.289731
v 9.557448 -3.036885 1.289731
v -9.557448 2.391425 0.020192
v 9.557448 -3.036885 0.020192
v -9.557448 -3.036885 0.020192
v 9.557448 2.391425 0.020192
v 9.317449 5.685515 3.931568
v -9.317449 5.685515 3.931568
v 9.557448 5.685515 1.529731
v -9.317449 5.685515 1.289731
v 9.557448 5.685515 3.691568
v -9.557448 5.685515 3.691568
v 9.557448 3.069301 3.931568
v 9.317449 5.685515 1.289731
v 9.317449 5.925515 3.691568
v 9.557448 3.069301 1.289731
v -9.557448 5.685515 1.529731
v 9.317449 5.925515 1.529731
v -9.557448 3.069301 3.931568
v -9.557448 3.069301 1.289731
v -9.317449 5.925515 3.691568
v -9.317449 5.925515 1.529731
v 9.557448 5.925515 3.931568
v -9.557448 5.925515 3.931568
v 9.557448 5.925515 1.289731
v -9.557448 5.925515 1.289731
v -9.324508 3.069301 3.931568
v 9.308474 3.069301 3.931568
v 9.557448 3.069301 3.698099
v 9.557448 3.069301 1.528477
v 9.302276 3.069301 1.289731
v -9.308208 3.069301 1.289731
v -9.557448 3.069301 1.519728
v -9.557448 3.069301 3.704707
v -9.317449 5.685515 3.691568
v -9.317449 5.685515 1.529731
v -9.317449 3.069301 1.519728
v -9.317449 3.069301 3.704707
v 9.317449 5.685515 1.529731
v 9.317449 5.685515 3.691568
v 9.317449 3.069301 3.698099
v 9.317449 3.069301 1.528477
v 0.000000 -3.036885 -3.931568
v 9.317449 -0.082730 -3.931568
v -9.317449 -0.082730 -3.931568
v 0.000000 2.151425 -3.931568
v 0.000000 -0.082730 -3.931568
v 0.000000 2.391425 -3.931568
v 9.557448 2.391425 -3.931568
v 9.557448 -0.322730 -3.931568
v -9.557448 2.391425 -3.931568
v -9.557448 -0.322730 -3.931568
v 0.000000 -0.322730 -3.931568
v 0.000000 2.151425 -1.570647
v 0.000000 -0.082730 -1.570647
v 9.317449 2.151425 -1.570647
v 9.317449 -0.082730 -1.570647
v -9.317449 2.151425 -1.570647
v -9.317449 -0.082730 -1.570647
vn -0.0000 -0.0000 1.0000
vn -1.0000 -0.0000 -0.0000
vn -0.0000 -1.0000 -0.0000
vn 1.0000 -0.0000 -0.0000
vn -0.0000 0.8821 -0.4710
vn -0.0000 1.0000 -0.0000
vn -0.0000 -0.0000 -1.0000
vn -0.0000 -0.0050 -1.0000
vn -0.0000 -0.0038 1.0000
vn -0.0000 -0.0005 1.0000
vn -0.0000 -0.0025 -1.0000
vn -0.9995 0.0029 0.0317
vn 0.9998 0.0017 0.0197
vn -0.9998 0.0017 -0.0190
vn 0.9999 -0.0013 0.0151
vt 0.234623 0.496981
vt 0.076829 0.496980
vt 0.076829 0.490547
vt 0.076829 0.009039
vt 0.076829 0.003020
vt 0.234623 0.003020
vt 0.250412 0.734623
vt 0.250412 0.594346
vt 0.352532 0.594346
vt 0.352532 0.664485
vt 0.352532 0.734623
vt 0.518779 0.003020
vt 0.518779 0.496980
vt 0.450509 0.496980
vt 0.450509 0.003020
vt 0.493497 0.734623
vt 0.493497 0.576829
vt 0.499666 0.576829
vt 0.555733 0.576829
vt 0.561766 0.576829
vt 0.561766 0.734623
vt 0.801103 0.490615
vt 0.858837 0.490616
vt 0.858837 0.551626
vt 0.801103 0.551626
vt 0.460690 0.734623
vt 0.460690 0.594346
vt 0.551586 0.003020
vt 0.551586 0.496980
vt 0.149335 0.734623
vt 0.149335 0.576829
vt 0.155198 0.576829
vt 0.211661 0.576829
vt 0.217605 0.576829
vt 0.217605 0.734623
vt 0.342471 0.003020
vt 0.342471 0.496980
vt 0.308851 0.496980
vt 0.308851 0.490540
vt 0.308851 0.009614
vt 0.308851 0.003020
vt 0.444470 0.003020
vt 0.444470 0.250000
vt 0.444470 0.496980
vt 0.653706 0.003020
vt 0.653706 0.250000
vt 0.653706 0.496980
vt 0.358571 0.734623
vt 0.358571 0.664485
vt 0.358571 0.594346
vt 0.721739 0.509222
vt 0.721739 0.990779
vt 0.665940 0.990779
vt 0.665940 0.509222
vt 0.499699 0.509221
vt 0.493497 0.503020
vt 0.009222 0.009222
vt 0.009222 0.490779
vt 0.003020 0.496980
vt 0.003020 0.003020
vt 0.555564 0.509221
vt 0.561766 0.503020
vt 0.574007 0.990779
vt 0.641614 0.990540
vt 0.641614 0.996980
vt 0.567805 0.996980
vt 0.641614 0.509614
vt 0.574007 0.509221
vt 0.567805 0.503020
vt 0.641614 0.503020
vt 0.155537 0.509222
vt 0.149335 0.503020
vt 0.211403 0.509222
vt 0.217605 0.503020
vt 0.659745 0.996980
vt 0.659745 0.503020
vt 0.727934 0.503020
vt 0.727934 0.996980
vt 0.801103 0.913261
vt 0.801103 0.845653
vt 0.807305 0.845653
vt 0.807305 0.913261
vt 0.807305 0.772007
vt 0.807305 0.839614
vt 0.801103 0.839614
vt 0.801103 0.772007
vt 0.864876 0.070627
vt 0.864876 0.003020
vt 0.871078 0.003020
vt 0.871078 0.070627
vt 0.807305 0.919299
vt 0.807305 0.986907
vt 0.801103 0.986907
vt 0.801103 0.919299
vt 0.665947 0.496980
vt 0.665947 0.490779
vt 0.721812 0.490779
vt 0.721812 0.496980
vt 0.807305 0.692321
vt 0.801135 0.692321
vt 0.801103 0.624713
vt 0.807305 0.624713
vt 0.721813 0.003020
vt 0.721813 0.009222
vt 0.665947 0.009222
vt 0.665947 0.003020
vt 0.864876 0.144273
vt 0.864876 0.076666
vt 0.871078 0.076666
vt 0.870821 0.144273
vt 0.240662 0.009453
vt 0.246688 0.009222
vt 0.246688 0.003020
vt 0.302688 0.003020
vt 0.302688 0.009222
vt 0.302914 0.490778
vt 0.302914 0.496980
vt 0.246517 0.496980
vt 0.246517 0.490778
vt 0.240662 0.490961
vt 0.801103 0.765967
vt 0.801103 0.698360
vt 0.807305 0.698360
vt 0.807136 0.765967
vt 0.659745 0.490779
vt 0.659745 0.009222
vt 0.728015 0.009222
vt 0.728015 0.490779
vt 0.871078 0.217920
vt 0.865215 0.217920
vt 0.864876 0.150312
vt 0.871078 0.150312
vt 0.143296 0.750000
vt 0.073158 0.750000
vt 0.073158 0.503020
vt 0.143296 0.503020
vt 0.143296 0.996980
vt 0.073158 0.996980
vt 0.795064 0.003020
vt 0.795064 0.243798
vt 0.734054 0.243798
vt 0.734054 0.003020
vt 0.009222 0.509222
vt 0.009222 0.750000
vt 0.003020 0.750000
vt 0.003020 0.503020
vt 0.066956 0.509222
vt 0.009222 0.990779
vt 0.066956 0.990779
vt 0.003020 0.996980
vt 0.066956 0.750000
vt 0.858837 0.243798
vt 0.801103 0.243798
vt 0.801103 0.003020
vt 0.858837 0.003020
vt 0.858837 0.484576
vt 0.801103 0.484576
vt 0.794991 0.490616
vt 0.794991 0.731394
vt 0.734054 0.731394
vt 0.734054 0.490616
vt 0.801103 0.557665
vt 0.858837 0.557665
vt 0.858837 0.618674
vt 0.801103 0.618674
vt 0.795064 0.484576
vt 0.734054 0.484576
vt 0.794991 0.972172
vt 0.734054 0.972172
s 0
usemtl Material
f 3/1/1 19/2/1 34/3/1 33/4/1 25/5/1 6/6/1
f 11/7/2 9/8/2 57/9/2 58/10/2 5/11/2
f 7/12/3 8/13/3 3/14/3 6/15/3
f 8/16/4 22/17/4 36/18/4 35/19/4 19/20/4 3/21/4
f 1/22/2 50/23/2 63/24/2 62/25/2
f 10/26/4 12/27/4 22/17/4 8/16/4
f 11/28/3 10/29/3 8/13/3 7/12/3
f 6/30/2 25/31/2 40/32/2 39/33/2 26/34/2 7/35/2
f 12/36/5 9/37/5 26/38/5 38/39/5 37/40/5 22/41/5
f 55/42/6 54/43/6 57/44/6 9/37/6 12/36/6
f 5/45/3 49/46/3 2/47/3 10/29/3 11/28/3
f 2/48/4 56/49/4 55/50/4 12/27/4 10/26/4
f 7/35/2 26/34/2 9/8/2 11/7/2
f 24/51/6 28/52/6 27/53/6 21/54/6
f 15/55/4 36/18/4 22/17/4 31/56/4
f 14/57/1 13/58/1 29/59/1 30/60/1
f 35/19/4 17/61/4 29/62/4 19/20/4
f 17/61/4 15/55/4 31/56/4 29/62/4
f 16/63/7 38/64/7 26/65/7 32/66/7
f 37/67/7 20/68/7 31/69/7 22/70/7
f 20/68/7 16/63/7 32/66/7 31/69/7
f 18/71/2 40/32/2 25/31/2 30/72/2
f 39/33/2 23/73/2 32/74/2 26/34/2
f 23/73/2 18/71/2 30/72/2 32/74/2
f 21/54/6 27/53/6 30/75/6 29/76/6
f 24/51/6 21/54/6 29/76/6 31/77/6
f 27/53/6 28/52/6 32/78/6 30/75/6
f 28/52/6 24/51/6 31/77/6 32/78/6
f 13/58/1 34/3/1 19/2/1 29/59/1
f 33/4/1 14/57/1 30/60/1 25/5/1
f 40/79/8 18/80/8 41/81/8 44/82/8
f 23/83/9 39/84/9 43/85/9 42/86/9
f 36/87/10 15/88/10 45/89/10 48/90/10
f 17/91/11 35/92/11 47/93/11 46/94/11
f 17/95/3 46/96/3 45/97/3 15/98/3
f 37/99/12 48/100/12 45/101/12 20/102/12
f 23/103/3 42/104/3 41/105/3 18/106/3
f 38/107/13 16/108/13 42/109/13 43/110/13
f 34/111/6 47/112/6 35/113/6 36/114/6 48/115/6 37/40/6 38/39/6 43/116/6 39/117/6 40/118/6 44/119/6 33/120/6
f 34/121/14 13/122/14 46/123/14 47/124/14
f 13/125/3 14/126/3 41/105/3 42/104/3 16/127/3 20/128/3 45/97/3 46/96/3
f 33/129/15 44/130/15 41/131/15 14/132/15
f 49/133/7 59/134/7 56/135/7 2/136/7
f 5/137/7 58/138/7 59/134/7 49/133/7
f 4/139/3 52/140/3 60/141/3 64/142/3
f 1/143/7 52/144/7 54/145/7 55/146/7
f 50/147/7 1/143/7 55/146/7 56/135/7
f 4/148/7 51/149/7 58/138/7 57/150/7
f 52/144/7 4/148/7 57/150/7 54/145/7
f 53/151/7 50/147/7 56/135/7 59/134/7
f 51/149/7 53/151/7 59/134/7 58/138/7
f 61/152/7 60/153/7 62/154/7 63/155/7
f 65/156/7 64/157/7 60/153/7 61/152/7
f 50/158/6 53/159/6 61/160/6 63/161/6
f 51/162/4 4/163/4 64/164/4 65/165/4
f 52/140/3 1/166/3 62/167/3 60/141/3
f 53/159/6 51/168/6 65/169/6 61/160/6
