# Blender 4.2.2 LTS
# www.blender.org
mtllib corn.mtl
o Cube
v 1.000000 0.626760 -0.321628
v 1.000000 -0.626760 -0.321628
v 1.000000 0.626760 0.321628
v 1.000000 -0.626760 0.321628
v -1.000000 0.390976 -0.321628
v -1.000000 -0.390976 -0.321628
v -1.000000 0.390976 0.321628
v -1.000000 -0.390976 0.321628
v -0.663410 -0.570360 -0.321628
v -0.663410 0.570360 0.321628
v -0.663410 -0.570360 0.321628
v -0.663410 0.570360 -0.321628
v -0.302432 -0.769704 0.321628
v -0.302432 0.769704 -0.321628
v -0.302432 -0.769704 -0.321628
v -0.302432 0.769704 0.321628
v 0.348784 -1.017864 0.321628
v 0.348784 1.017864 -0.321628
v 0.348784 -1.017864 -0.321628
v 0.348784 1.017864 0.321628
v 0.674392 -1.008932 0.321628
v 0.674392 1.008932 -0.321628
v 0.674392 -1.008932 -0.321628
v 0.674392 1.008932 0.321628
vn -0.4703 0.8825 -0.0000
vn -0.0000 -0.0000 1.0000
vn -1.0000 -0.0000 -0.0000
vn 0.7612 -0.6485 -0.0000
vn 1.0000 -0.0000 -0.0000
vn -0.0000 -0.0000 -1.0000
vn -0.4703 -0.8825 -0.0000
vn -0.4834 0.8754 -0.0000
vn -0.3561 0.9345 -0.0000
vn -0.4834 -0.8754 -0.0000
vn 0.0274 0.9996 -0.0000
vn -0.3561 -0.9345 -0.0000
vn 0.7612 0.6485 -0.0000
vn 0.0274 -0.9996 -0.0000
vt 0.324122 0.847910
vt 0.324122 0.939419
vt 0.167909 0.939419
vt 0.167909 0.847910
vt 0.407854 0.389595
vt 0.407854 0.112574
vt 0.489594 0.156137
vt 0.489594 0.346032
vt 0.495930 0.695963
vt 0.495930 0.506068
vt 0.652143 0.506068
vt 0.652143 0.695963
vt 0.003899 0.996101
vt 0.003899 0.903292
vt 0.160112 0.903292
vt 0.160112 0.996101
vt 0.003899 0.598877
vt 0.160112 0.598877
vt 0.904014 0.496101
vt 0.904014 0.006068
vt 0.983087 0.098877
vt 0.983087 0.403292
vt 0.497391 0.346032
vt 0.497391 0.156137
vt 0.579132 0.112574
vt 0.579132 0.389595
vt 0.488133 0.506068
vt 0.488133 0.597577
vt 0.331920 0.597577
vt 0.331920 0.506068
vt 0.320191 0.438006
vt 0.320191 0.064164
vt 0.324122 0.749215
vt 0.167909 0.749215
vt 0.324122 0.580050
vt 0.167909 0.580050
vt 0.162045 0.498270
vt 0.162045 0.003899
vt 0.666794 0.064164
vt 0.666794 0.438006
vt 0.488133 0.696272
vt 0.331920 0.696272
vt 0.082972 0.496101
vt 0.082972 0.006068
vt 0.324122 0.506068
vt 0.167909 0.506068
vt 0.824941 0.003899
vt 0.824941 0.498270
vt 0.488133 0.865437
vt 0.331920 0.865437
vt 0.003899 0.506068
vt 0.160112 0.506068
vt 0.003899 0.403292
vt 0.003899 0.098877
vt 0.488133 0.939419
vt 0.331920 0.939419
s 0
usemtl Material
f 12/1/1 5/2/1 7/3/1 10/4/1
f 11/5/2 10/6/2 7/7/2 8/8/2
f 8/9/3 7/10/3 5/11/3 6/12/3
f 23/13/4 2/14/4 4/15/4 21/16/4
f 2/14/5 1/17/5 3/18/5 4/15/5
f 23/19/6 22/20/6 1/21/6 2/22/6
f 6/23/6 5/24/6 12/25/6 9/26/6
f 6/27/7 9/28/7 11/29/7 8/30/7
f 13/31/2 16/32/2 10/6/2 11/5/2
f 14/33/8 12/1/8 10/4/8 16/34/8
f 18/35/9 14/33/9 16/34/9 20/36/9
f 17/37/2 20/38/2 16/32/2 13/31/2
f 9/26/6 12/25/6 14/39/6 15/40/6
f 9/28/10 15/41/10 13/42/10 11/29/10
f 21/43/2 24/44/2 20/38/2 17/37/2
f 22/45/11 18/35/11 20/36/11 24/46/11
f 15/40/6 14/39/6 18/47/6 19/48/6
f 15/41/12 19/49/12 17/50/12 13/42/12
f 1/17/13 22/51/13 24/52/13 3/18/13
f 4/53/2 3/54/2 24/44/2 21/43/2
f 19/48/6 18/47/6 22/20/6 23/19/6
f 19/49/14 23/55/14 21/56/14 17/50/14
